<?xml version="1.0" standalone="no"?>
<!DOCTYPE svg PUBLIC "-//W3C//DTD SVG 1.1//EN" "http://www.w3.org/Graphics/SVG/1.1/DTD/svg11.dtd" >
<svg xmlns="http://www.w3.org/2000/svg">
<metadata></metadata>
<defs>
<font id="skoda_proregular" horiz-adv-x="1151" >
<font-face units-per-em="2048" ascent="1638" descent="-410" />
<missing-glyph horiz-adv-x="508" />
<glyph horiz-adv-x="0" />
<glyph unicode="&#xd;" horiz-adv-x="508" />
<glyph unicode=" "  horiz-adv-x="508" />
<glyph unicode="&#x09;" horiz-adv-x="508" />
<glyph unicode="&#xa0;" horiz-adv-x="508" />
<glyph unicode="!" horiz-adv-x="494" d="M185 14v201q0 14 14 17l92 18q14 3 14 -11v-225q0 -14 -14 -14h-92q-14 0 -14 14zM186 1461q0 14 14 17l93 18q14 3 14 -11l-7 -1024q0 -14 -14 -14h-79q-14 0 -14 14z" />
<glyph unicode="&#x22;" horiz-adv-x="688" d="M143 1030v431q0 15 14 16l96 18q14 1 14 -12v-453q0 -14 -14 -14h-96q-14 0 -14 14zM421 1030v431q0 15 14 16l96 18q14 1 14 -12v-453q0 -14 -14 -14h-96q-14 0 -14 14z" />
<glyph unicode="#" horiz-adv-x="1466" d="M82 401l10 82q3 14 16 14h261l83 480h-255q-15 0 -12 14l9 82q3 14 16 14h261l65 374q1 14 16 14h86q13 0 12 -14l-65 -374h416l65 374q1 14 16 14h87q13 0 12 -14l-65 -374h256q15 0 12 -14l-10 -82q-3 -14 -16 -14h-261l-83 -480h254q15 0 12 -14l-10 -82 q-3 -14 -16 -14h-259l-65 -373q-1 -14 -16 -14h-87q-13 0 -12 14l65 373h-416l-65 -373q-1 -14 -16 -14h-86q-13 0 -12 14l65 373h-256q-15 0 -12 14zM483 497h416l83 480h-416z" />
<glyph unicode="$" horiz-adv-x="1071" d="M104 1134q0 84 21 147t68 106t121 67.5t181 32.5v231q0 14 14 14h74q14 0 14 -14l4 -227q85 0 163.5 -6.5t136.5 -17.5q14 -3 11 -17l-14 -70q-3 -13 -17 -12q-60 10 -136 14.5t-148 4.5l-2 -601l61 -21q93 -34 154 -70.5t97 -81.5t50.5 -102.5t14.5 -133.5 q0 -81 -15.5 -147.5t-56.5 -116t-114.5 -81t-188.5 -42.5v-233q0 -14 -14 -14h-74q-14 0 -14 14v228q-8 0 -16.5 -0.5t-16.5 -0.5q-41 0 -84.5 2t-85.5 5.5t-81 9t-72 12.5q-14 3 -10 16l20 72q2 8 6 10t12 1q85 -14 159 -19t145 -5h24l2 625l-75 27q-80 30 -139.5 62.5 t-99 77.5t-59.5 106t-20 148zM208 1133q0 -71 16 -118t51 -80.5t89.5 -59t132.5 -54.5v563q-81 -5 -136.5 -21t-89.5 -46t-48.5 -75.5t-14.5 -108.5zM595 93q92 9 146.5 33t83 60.5t36.5 84.5t8 106q0 60 -11.5 102t-42 75t-83.5 61.5t-137 61.5v-584z" />
<glyph unicode="%" horiz-adv-x="1810" d="M110 972v140q0 112 23 186t65.5 118.5t102.5 62.5t135 18t135 -18t102 -62.5t64.5 -118.5t22.5 -186v-140q0 -111 -22 -185t-64 -118t-102 -62.5t-136 -18.5q-75 0 -135 18.5t-102.5 62.5t-65.5 118t-23 185zM211 971q0 -83 15.5 -138t45 -88t71 -46.5t93.5 -13.5 t93 13.5t70 46.5t44.5 88.5t15.5 139.5v140q0 84 -15.5 139.5t-45 88.5t-70.5 46.5t-92 13.5q-52 0 -93.5 -13.5t-71 -46.5t-45 -88.5t-15.5 -139.5v-142zM399 12l876 1451q7 12 21 12h100q13 0 7 -12l-877 -1451q-7 -12 -21 -12h-99q-13 0 -7 12zM1050 361v141 q0 112 22.5 186t64.5 118t102 62.5t135 18.5t135 -18.5t102 -62.5t64.5 -118t22.5 -186v-141q0 -111 -22 -184.5t-64 -118t-102 -62.5t-136 -18q-74 0 -134 18t-102 62.5t-65 118t-23 184.5zM1150 360q0 -83 15.5 -138t44.5 -88t70.5 -46.5t93.5 -13.5t94 13.5t71 46.5 t44.5 88.5t15.5 139.5v140q0 84 -16 139.5t-45 88.5t-70.5 46t-93.5 13t-93.5 -13t-70.5 -46t-44.5 -88.5t-15.5 -139.5v-142z" />
<glyph unicode="&#x26;" horiz-adv-x="1423" d="M112 391q0 117 15.5 188.5t51.5 117t94.5 76t145.5 66.5q-48 54 -78.5 97t-48 85.5t-23.5 89t-6 105.5q0 81 20.5 135t63.5 86.5t109 46t157 13.5q88 0 153 -13.5t107.5 -46t63 -86.5t20.5 -135q0 -53 -4 -95t-17 -76.5t-37 -63t-63.5 -56.5t-97 -57.5t-136.5 -63.5 l412 -439q70 85 120 183.5t75 198.5q3 14 17 14h86q14 0 11 -14q-29 -125 -88.5 -244t-144.5 -219l256 -274q10 -10 -4 -10h-121q-13 0 -24 10l-182 194q-109 -103 -242 -164.5t-284 -61.5q-80 0 -149 10.5t-119.5 51.5t-79.5 124t-29 227zM227 400q0 -74 9.5 -126t27 -86.5 t42 -54.5t54.5 -29.5t64.5 -12t72.5 -2.5q125 0 237 53.5t205 141.5l-445 474q-78 -33 -129.5 -59t-82 -63t-43 -91.5t-12.5 -144.5zM372 1213q0 -56 7 -96t24.5 -75.5t47 -72t75.5 -85.5q74 32 127 56t88.5 46t56.5 43.5t32.5 48t14.5 59t3 76.5q0 52 -9.5 88t-35.5 58.5 t-71.5 32.5t-117.5 10q-74 0 -121 -10t-74 -32.5t-37 -58.5t-10 -88z" />
<glyph unicode="'" horiz-adv-x="411" d="M143 1030v431q0 15 14 16l96 18q14 1 14 -12v-453q0 -14 -14 -14h-96q-14 0 -14 14z" />
<glyph unicode="(" horiz-adv-x="543" d="M126 512v61q0 108 13.5 227.5t41 237.5t70.5 227.5t102 197.5q8 12 22 12h90q13 0 6 -12q-60 -90 -103 -201t-71.5 -230t-42 -238.5t-13.5 -225.5v-51q0 -106 13.5 -225.5t42 -238t72 -229.5t102.5 -201q7 -12 -6 -12h-90q-14 0 -22 12q-59 88 -102 197t-70.5 227 t-41 237.5t-13.5 227.5z" />
<glyph unicode=")" horiz-adv-x="543" d="M72 -377q59 90 102.5 201t72 229.5t42 238t13.5 225.5v51q0 106 -13.5 225.5t-42 238.5t-71.5 230t-103 201q-8 12 6 12h90q14 0 22 -12q59 -88 102 -197.5t70.5 -227.5t41 -237.5t13.5 -227.5v-61q0 -108 -13.5 -227.5t-41 -237.5t-70.5 -227t-102 -197q-8 -12 -22 -12 h-90q-14 0 -6 12z" />
<glyph unicode="*" horiz-adv-x="929" d="M123 1032q-7 12 5 19l208 120l14 8t12 6q6 3 12 5q-6 2 -12 5q-13 5 -27 14l-207 120q-12 7 -5 19l33 59q7 12 19 5l208 -120q13 -8 24 -16l12 -8q-1 7 -2 15q-1 7 -1 16v20v231q0 14 14 14h69q14 0 14 -14v-231q0 -11 -0.5 -20t-1.5 -16q-1 -8 -1 -15l12 8q5 4 11 8 t13 8l208 120q12 7 19 -5l34 -59q7 -12 -5 -19l-207 -119q-8 -5 -15.5 -9t-12.5 -6q-6 -3 -12 -5q6 -2 13 -5q6 -2 12.5 -6t14.5 -8l207 -120q12 -7 5 -19l-34 -60q-7 -12 -19 -5l-211 122q-7 4 -12.5 8t-10.5 7q-5 4 -10 7q0 -6 1 -13q1 -6 1.5 -13t0.5 -14v-243 q0 -14 -14 -14h-69q-14 0 -14 14v246v14t1 12q1 6 2 11q-6 -4 -11 -8t-11 -7.5t-12 -7.5l-210 -121q-12 -7 -19 5z" />
<glyph unicode="+" horiz-adv-x="1021" d="M102 759v81q0 14 14 14h340v340q0 14 14 14h81q14 0 14 -14v-340h340q14 0 14 -14v-81q0 -14 -14 -14h-340v-340q0 -14 -14 -14h-81q-14 0 -14 14v340h-340q-14 0 -14 14z" />
<glyph unicode="," horiz-adv-x="447" d="M83 -219l79 434q3 15 17 16l114 20q14 1 11 -12l-117 -458q-3 -14 -17 -14h-76q-14 0 -11 14z" />
<glyph unicode="-" horiz-adv-x="807" d="M161 567v80q0 14 14 14h458q14 0 14 -14v-80q0 -14 -14 -14h-458q-14 0 -14 14z" />
<glyph unicode="." horiz-adv-x="425" d="M149 14v201q0 14 14 17l92 18q14 3 14 -11v-225q0 -14 -14 -14h-92q-14 0 -14 14z" />
<glyph unicode="/" horiz-adv-x="772" d="M90 13l488 1530q4 13 18 13h87q14 0 10 -13l-488 -1530q-4 -13 -18 -13h-87q-14 0 -10 13z" />
<glyph unicode="0" horiz-adv-x="1290" d="M159 596v282q0 134 14 231.5t41.5 166.5t68 112t94.5 67t120.5 33t145.5 9q81 0 148.5 -9t121.5 -33t94.5 -67t68 -112t41 -167t13.5 -231v-282q0 -134 -13.5 -232t-41 -166.5t-68 -111.5t-94.5 -67t-121.5 -32.5t-148.5 -8.5q-79 0 -145.5 8.5t-120.5 32.5t-94.5 67 t-68 111.5t-41.5 166.5t-14 232zM273 596q0 -112 10.5 -193.5t31.5 -137.5t52 -90.5t72 -53.5t92 -25.5t112 -6.5q62 0 113.5 6.5t93 25.5t73 53.5t52 91t31 138t10.5 194.5v280q0 112 -10.5 193.5t-31 138t-52 91t-73 53.5t-93 25.5t-113.5 6.5q-61 0 -112 -6.5t-92 -25.5 t-72 -53.5t-52 -91t-31.5 -138t-10.5 -193.5v-282z" />
<glyph unicode="1" horiz-adv-x="731" d="M34 1403q-1 15 12 16l354 54q6 1 14 1.5t14 0.5h85q14 0 14 -14v-1447q0 -14 -14 -14h-85q-14 0 -14 14v1351l-350 -54q-15 -1 -16 12z" />
<glyph unicode="2" horiz-adv-x="1081" d="M107 14v69q0 100 15 176.5t50 142.5t94 127t146 130l225 179q43 34 80 65.5t63.5 66t41.5 74.5t15 92q0 71 -17 119t-58.5 77t-112 41t-177.5 12q-63 0 -142.5 -5.5t-157.5 -19.5q-14 -3 -17 11l-15 77q-3 14 11 17q37 9 80 15t86.5 9.5t84.5 5.5t75 2q135 0 226.5 -19.5 t147.5 -61.5t80.5 -109.5t24.5 -163.5q0 -65 -16 -116t-46.5 -95t-75.5 -85t-103 -87l-197 -156q-87 -69 -142.5 -124.5t-87.5 -111t-44 -117t-12 -142.5h700q14 0 14 -14v-81q0 -14 -14 -14h-811q-14 0 -14 14z" />
<glyph unicode="3" horiz-adv-x="1130" d="M143 23l3 82q1 13 15 12q70 -12 147.5 -19.5t147.5 -7.5q104 0 180.5 16t126.5 53t74 97t24 148v39q0 49 -13.5 102.5t-48 98t-92.5 73t-146 28.5h-343q-14 0 -14 14v81q0 14 14 14h341q91 0 150 25t92.5 62t46.5 80.5t13 79.5v23q0 78 -28 128.5t-80 80t-127.5 41.5 t-169.5 12q-73 0 -148 -8.5t-144 -17.5q-14 -1 -15 12l-5 81q-1 15 13 16q62 11 140.5 19.5t162.5 8.5q121 0 217 -17.5t163 -59t102 -111t35 -173.5v-26q0 -51 -14.5 -99.5t-45 -90.5t-78 -73.5t-114.5 -47.5q72 -19 120.5 -59t77.5 -90t41.5 -106t12.5 -107v-40 q0 -122 -35 -202.5t-101 -128.5t-162 -68t-217 -20q-85 0 -164 8.5t-142 19.5q-14 3 -13 17z" />
<glyph unicode="4" horiz-adv-x="1180" d="M63 401v113q0 14 8 25l680 925q8 11 22 11h125q14 0 14 -14v-972h176q14 0 14 -14v-74q0 -14 -14 -14h-176v-373q0 -14 -14 -14h-86q-14 0 -14 14v373h-721q-14 0 -14 14zM174 489h624v841h-15l-609 -830v-11z" />
<glyph unicode="5" horiz-adv-x="1114" d="M112 26l20 78q3 13 17 12q74 -14 147 -20.5t139 -6.5q216 0 325.5 85.5t109.5 256.5v43q0 83 -25.5 145.5t-80 104t-140 62.5t-205.5 21q-32 0 -68.5 -3t-71 -7.5t-62.5 -8.5t-43 -7q-14 -1 -14 12v69q0 6 0.5 14t0.5 14l61 571q1 14 15 14h731q14 0 11 -14l-18 -82 q-3 -14 -17 -14h-624l-50 -472l18 2.5t43 5t52.5 5t47.5 2.5q285 0 419.5 -106t134.5 -328v-43q0 -117 -37 -202t-107.5 -141t-172 -83t-230.5 -27q-94 0 -171.5 8.5t-143.5 23.5q-14 3 -11 16z" />
<glyph unicode="6" horiz-adv-x="1216" d="M152 636v219q0 180 34.5 303t106 198t180.5 108t258 33q72 0 141.5 -7.5t129.5 -21.5q14 -3 11 -17l-15 -75q-3 -13 -17 -12q-53 9 -118.5 15.5t-130.5 6.5q-126 0 -214.5 -25t-144.5 -85t-82 -159t-26 -247q33 6 76.5 13t92 13t99.5 9.5t101 3.5q110 0 197.5 -23 t148.5 -75t93.5 -137t32.5 -208v-13q0 -103 -30 -190t-89.5 -150.5t-149 -99t-208.5 -35.5q-113 0 -202 29.5t-150 104t-93 202t-32 322.5zM265 636q0 -168 24 -274t70.5 -167t115 -83.5t156.5 -22.5q92 0 160 25.5t112.5 72.5t66.5 114t22 150v13q0 96 -23.5 161t-69 105 t-114 57t-158.5 17q-47 0 -97 -3.5t-97.5 -8.5t-91 -11.5t-76.5 -12.5v-132z" />
<glyph unicode="7" horiz-adv-x="1007" d="M53 1461q-1 14 12 14h891q14 0 14 -14v-84q0 -14 -6 -27l-675 -1337q-5 -13 -20 -13h-103q-14 0 -8 12l693 1353h-769q-15 0 -16 14z" />
<glyph unicode="8" horiz-adv-x="1264" d="M138 394v49q0 40 12 90t40 98t74.5 88.5t116.5 61.5q-57 17 -95.5 51t-62 78t-33.5 95t-10 101v19q0 95 31 165t89 116t142 68.5t190 22.5t189.5 -22.5t141.5 -68.5t89 -116t31 -165v-19q0 -50 -10 -101t-33 -95t-61.5 -78t-95.5 -51q70 -21 116.5 -61.5t74.5 -88.5 t40 -98t12 -90v-49q0 -116 -35.5 -195.5t-100 -128.5t-155.5 -70.5t-203 -21.5t-203 21.5t-155.5 70.5t-100 128.5t-35.5 195.5zM250 400q0 -85 23.5 -145t71.5 -97.5t119.5 -55t167.5 -17.5t167.5 17.5t119.5 55t71.5 97.5t23.5 145v45q0 21 -5 50t-18 60.5t-35 62.5 t-56.5 55.5t-82.5 39.5t-112 15h-146q-65 0 -113 -15t-82.5 -39.5t-56.5 -55.5t-34.5 -62.5t-17.5 -60.5t-5 -50v-45zM290 1102q0 -40 10.5 -86.5t40 -86.5t82 -66.5t136.5 -26.5h146q84 0 136.5 26.5t82 66.5t40 86.5t10.5 86.5v16q0 141 -83.5 206.5t-258.5 65.5 t-258.5 -65.5t-83.5 -206.5v-16z" />
<glyph unicode="9" horiz-adv-x="1216" d="M113 1017v13q0 105 28 191t85.5 147.5t146 95t208.5 33.5q110 0 200 -28t153.5 -99.5t98 -194.5t34.5 -313v-168q0 -202 -34.5 -339t-106 -221t-181 -120t-258.5 -36q-73 0 -143 8t-131 20q-14 3 -11 17l15 77q3 14 17 11q54 -10 120.5 -16t132.5 -6q118 0 203 25 t141.5 84t85 158t34.5 246q-34 -7 -77 -14t-91 -12.5t-99 -9t-99 -3.5q-111 0 -199 23.5t-148.5 77t-92.5 140t-32 213.5zM226 1019q0 -99 23 -166t68.5 -108t114.5 -58.5t161 -17.5q46 0 95.5 2.5t97 7t90.5 10.5t77 12v162q0 164 -26.5 266t-75.5 159t-117.5 77.5 t-153.5 20.5q-94 0 -161 -23.5t-110 -68.5t-63 -111t-20 -151v-13z" />
<glyph unicode=":" horiz-adv-x="449" d="M164 14v201q0 14 14 17l92 18q14 3 14 -11v-225q0 -14 -14 -14h-92q-14 0 -14 14zM164 690v201q0 14 14 17l92 18q14 3 14 -11v-225q0 -14 -14 -14h-92q-14 0 -14 14z" />
<glyph unicode=";" horiz-adv-x="514" d="M124 -219l79 434q3 15 17 16l114 20q14 1 11 -12l-117 -458q-3 -14 -17 -14h-76q-14 0 -11 14zM210 690v201q0 14 14 17l92 18q14 3 14 -11v-225q0 -14 -14 -14h-92q-14 0 -14 14z" />
<glyph unicode="&#x3c;" horiz-adv-x="880" d="M83 732v82q0 14 12 22l587 407q11 9 16 -5l25 -86q4 -13 -8 -21l-529 -358l529 -359q12 -8 8 -21l-25 -85q-5 -14 -16 -5l-587 407q-12 8 -12 22z" />
<glyph unicode="=" horiz-adv-x="1155" d="M173 543v80q0 14 14 14h781q14 0 14 -14v-80q0 -14 -14 -14h-781q-14 0 -14 14zM173 977v79q0 14 14 14h781q14 0 14 -14v-79q0 -14 -14 -14h-781q-14 0 -14 14z" />
<glyph unicode="&#x3e;" horiz-adv-x="880" d="M157 393q-4 13 8 21l529 359l-529 358q-12 8 -8 21l25 86q5 14 16 5l587 -407q12 -8 12 -22v-82q0 -14 -12 -22l-587 -407q-11 -9 -16 5z" />
<glyph unicode="?" horiz-adv-x="849" d="M85 1457q-3 14 11 17q60 11 133 17t139 6q88 0 160 -12t124 -42t80.5 -81t28.5 -128v-14q0 -43 -10 -82.5t-34 -81t-63 -88.5t-97 -104l-67 -70q-47 -49 -73 -81.5t-38 -62t-14.5 -63.5t-2.5 -85v-91q0 -14 -14 -14h-81q-14 0 -14 14q0 11 -0.5 28t-1 33.5t-1 29.5 t-0.5 17q0 55 4 94.5t19.5 75t45.5 73t81 90.5l61 61q46 45 79.5 83.5t55.5 73t32.5 66.5t10.5 66v19q0 90 -73 127t-211 37q-54 0 -111 -4t-127 -14q-14 -1 -17 12zM256 14v201q0 14 14 17l92 18q14 3 14 -11v-225q0 -14 -14 -14h-92q-14 0 -14 14z" />
<glyph unicode="@" horiz-adv-x="1743" d="M116 326q-3 110 11 230l14 129q22 195 92 334t181 227.5t259 130t325 41.5q124 0 218.5 -21.5t164 -60t115.5 -92t74 -118t40 -137.5t12 -150q0 -163 -30.5 -283.5t-84 -206t-126.5 -140.5t-156.5 -86.5t-175 -43.5t-182.5 -12h-15q-116 0 -190.5 23t-115 75.5t-51 137.5 t2.5 210l10 104q14 128 43 214t81.5 137.5t133 73t196.5 21.5q59 0 124 -6.5t133 -21.5q14 -3 13 -17l-55 -812q73 25 134.5 71t106.5 121t70.5 183.5t25.5 259.5q0 104 -26 191t-87 150t-161.5 98.5t-248.5 35.5q-155 0 -283 -36.5t-223 -115.5t-155.5 -203.5t-81.5 -299.5 l-12 -104q-12 -104 -10.5 -200.5t20.5 -180.5t58.5 -154t105.5 -120t159.5 -78.5t221.5 -29.5q14 0 13 -14l-8 -77q-1 -14 -15 -14q-145 1 -253.5 33t-185.5 88.5t-125.5 135t-73 174.5t-27.5 206zM601 354.5q5 -69.5 34 -111t87.5 -58t153.5 -16.5q62 0 106.5 3.5 t86.5 13.5l49 761q-39 5 -82 11t-86 6q-92 0 -151.5 -17.5t-97 -60t-57.5 -113t-31 -175.5l-6 -67q-11 -107 -6 -176.5z" />
<glyph unicode="A" horiz-adv-x="1290" d="M36 13l524 1449q5 13 19 13h132q14 0 19 -13l526 -1449q2 -4 2 -6q0 -7 -11 -7h-98q-14 0 -19 13l-146 408h-679l-146 -408q-5 -13 -19 -13h-95q-11 0 -11 7q0 2 2 6zM345 531h599l-300 831z" />
<glyph unicode="B" horiz-adv-x="1298" d="M202 10v1451q0 8 3 11t11 5q33 3 72 6t82 4.5t87 2.5t87 1q141 0 246.5 -13.5t175 -51t104 -104t34.5 -172.5v-11q0 -61 -12.5 -110t-34.5 -86t-52 -62.5t-65 -40.5q52 -15 94.5 -44.5t72.5 -76t46.5 -110t16.5 -147.5v-52q0 -142 -38.5 -227t-114.5 -130t-188.5 -59 t-259.5 -14q-38 0 -82 1t-90 3t-92 4.5t-89 6.5q-14 1 -14 15zM315 96q64 -5 132 -7t135 -2q124 0 213.5 9t147.5 41.5t85.5 96.5t27.5 174v51q0 85 -20.5 141.5t-57 89.5t-88 46.5t-112.5 13.5h-463v-654zM315 858h410q68 2 118 21t82.5 52.5t48.5 80.5t16 105v16 q0 84 -28 134t-83 76t-136 34t-187 8q-73 0 -133.5 -2.5t-107.5 -7.5v-517z" />
<glyph unicode="C" horiz-adv-x="1169" d="M142 670v135q0 197 40.5 330t117.5 213.5t188 114.5t253 34q92 0 176 -8.5t142 -22.5q8 -2 10.5 -6t1.5 -12l-14 -75q-3 -14 -17 -11q-67 13 -145 18.5t-152 5.5q-114 0 -204 -27t-152 -93t-94.5 -176t-32.5 -275v-155q0 -166 32.5 -276t94 -175.5t151.5 -92.5t205 -27 q93 0 169 7t138 18q15 3 16 -11l13 -77q1 -8 -1.5 -11.5t-10.5 -5.5q-59 -14 -145 -22.5t-181 -8.5q-142 0 -253 34t-188 114.5t-117.5 213t-40.5 330.5z" />
<glyph unicode="D" horiz-adv-x="1394" d="M203 14v1447q0 14 14 15q43 3 92.5 4.5t97 3t90 2t73.5 0.5q101 0 191 -9.5t165.5 -36t136 -74.5t102 -124.5t64 -186.5t22.5 -260v-113q0 -150 -22 -260.5t-64 -188t-102 -126t-135.5 -76t-165.5 -37.5t-191 -10q-39 0 -83 1t-90 2.5t-92 4.5t-89 7q-14 1 -14 15z M316 101q30 -3 65.5 -5t71.5 -3.5t71 -2t64 -0.5q90 0 166 9.5t137 33.5t107 66.5t77 107.5t46.5 156.5t15.5 214.5v119q0 122 -15.5 213t-47 155.5t-78 106t-108 65.5t-138.5 33t-168 9q-26 0 -61.5 -0.5t-72.5 -1.5t-72 -2.5t-60 -3.5v-1270z" />
<glyph unicode="E" horiz-adv-x="1183" d="M204 14v1447q0 14 14 14h824q14 0 14 -14v-85q0 -14 -14 -14h-725v-502h630q14 0 14 -14v-84q0 -14 -14 -14h-630v-636h725q14 0 14 -14v-84q0 -14 -14 -14h-824q-14 0 -14 14z" />
<glyph unicode="F" horiz-adv-x="1103" d="M204 14v1447q0 14 14 14h834q14 0 14 -14v-85q0 -14 -14 -14h-735v-502h587q14 0 14 -14v-84q0 -14 -14 -14h-587v-734q0 -14 -14 -14h-85q-14 0 -14 14z" />
<glyph unicode="G" horiz-adv-x="1261" d="M144 670v135q0 197 39.5 330t116 213.5t188.5 114.5t258 34q88 0 171.5 -8.5t142.5 -24.5q13 -4 10 -18l-14 -73q-3 -14 -17 -11q-66 12 -142 17.5t-148 5.5q-121 0 -212 -27t-152.5 -92.5t-92.5 -175.5t-31 -275v-155q0 -166 29 -275.5t87.5 -175t146.5 -92.5t205 -27 q85 0 150.5 6t119.5 17v544l-321 4q-14 0 -14 14v78q0 14 14 14h424q7 0 8 -7v-1q0 -3 0.5 -7t0.5 -7l1 -704q0 -14 -13 -18q-97 -28 -189 -36.5t-180 -8.5q-144 0 -253.5 34t-183.5 114.5t-111.5 213t-37.5 330.5z" />
<glyph unicode="H" horiz-adv-x="1406" d="M204 14v1447q0 14 14 14h85q14 0 14 -14v-601h772v601q0 14 14 14h86q14 0 14 -14v-1447q0 -14 -14 -14h-86q-14 0 -14 14v734h-772v-734q0 -14 -14 -14h-85q-14 0 -14 14z" />
<glyph unicode="I" horiz-adv-x="521" d="M204 14v1447q0 14 14 14h85q14 0 14 -14v-1447q0 -14 -14 -14h-85q-14 0 -14 14z" />
<glyph unicode="J" horiz-adv-x="520" d="M-48 -237l14 77q3 13 16 10q21 -5 42.5 -6t41.5 -1q31 0 56.5 5t43.5 22t27.5 49t9.5 87v1455q0 14 14 14h85q14 0 14 -14v-1461q0 -80 -15.5 -132t-46 -82t-75.5 -42t-103 -12q-26 0 -56.5 4t-56.5 10q-12 3 -12 13q0 2 1 4z" />
<glyph unicode="K" horiz-adv-x="1164" d="M204 14v1447q0 14 14 14h86q14 0 14 -14v-648l641 652q11 10 24 10h129q14 0 4 -10l-617 -624l641 -830q4 -4 4 -7q0 -4 -9 -4h-122q-8 0 -13 2.5t-10 8.5l-576 746l-96 -91v-652q0 -14 -14 -14h-86q-14 0 -14 14z" />
<glyph unicode="L" horiz-adv-x="1035" d="M204 14v1447q0 14 14 14h85q14 0 14 -14v-1349h667q14 0 14 -14v-84q0 -14 -14 -14h-766q-14 0 -14 14z" />
<glyph unicode="M" horiz-adv-x="1631" d="M204 14v1447q0 14 14 14h101q14 0 21 -12l415 -733l61 -110q0 1 5.5 11t14.5 26t19.5 35.5t21.5 39.5l414 731q7 12 21 12h101q14 0 14 -14v-1447q0 -14 -14 -14h-86q-14 0 -14 14l-2 1264q-2 -1 -14.5 -24t-28.5 -51l-396 -706q-7 -12 -21 -12h-71q-14 0 -21 12 l-393 699q-18 34 -31 58t-15 24l-3 -1264q0 -14 -14 -14h-85q-14 0 -14 14z" />
<glyph unicode="N" horiz-adv-x="1413" d="M204 14v1447q0 14 14 14h105q14 0 21 -12l681 -1152q32 -55 50 -86.5t20 -31.5l1 1268q0 14 14 14h85q14 0 14 -14v-1447q0 -14 -14 -14h-104q-14 0 -21 12l-678 1144q-32 53 -52 89t-21 36l-2 -1267q0 -14 -14 -14h-85q-14 0 -14 14z" />
<glyph unicode="O" horiz-adv-x="1422" d="M146 670v135q0 197 37.5 329.5t109.5 213t177.5 115t241.5 34.5t241 -34t176.5 -114.5t108.5 -213.5t37 -330v-135q0 -198 -37 -330.5t-108.5 -213t-176.5 -114.5t-241 -34t-241.5 34t-177.5 114.5t-109.5 213t-37.5 330.5zM263 660q0 -165 29.5 -274t87 -174t141 -91.5 t191.5 -26.5q107 0 190.5 26.5t140.5 91.5t86.5 174.5t29.5 275.5v153q0 165 -29.5 273.5t-86.5 173.5t-140.5 91.5t-190.5 26.5t-190.5 -26.5t-141 -91.5t-87.5 -173.5t-30 -273.5v-155z" />
<glyph unicode="P" horiz-adv-x="1265" d="M204 14v1451q0 14 14 15q35 2 78 4t85.5 3.5t80.5 2.5t64 1q171 0 292 -16t198.5 -63.5t113.5 -133.5t36 -226v-74q0 -140 -36 -226.5t-113.5 -133.5t-198.5 -63t-292 -16q-21 0 -54 0.5t-65 1.5t-57.5 2t-32.5 2v-531q0 -14 -14 -14h-85q-14 0 -14 14zM317 652 q16 -2 44.5 -3t59 -2t59.5 -1.5t47 -0.5q148 0 248.5 13.5t162 51t87.5 104.5t26 174v53q0 107 -26 174.5t-87.5 105t-162 51t-248.5 13.5q-18 0 -47 -1t-59.5 -2t-59 -3t-44.5 -3v-724z" />
<glyph unicode="Q" horiz-adv-x="1423" d="M146 670v135q0 197 37.5 329.5t109.5 213t177.5 115t241.5 34.5t241 -34t176.5 -114.5t108.5 -213.5t37 -330v-135q0 -172 -28 -295t-83 -204t-135 -125t-185 -59l226 -364q6 -12 -7 -12h-108q-14 0 -21 12l-217 355q-138 0 -244 34t-179 114.5t-110.5 213t-37.5 330.5z M263 660q0 -165 29.5 -274t87 -174t141 -91.5t191.5 -26.5q107 0 190.5 26.5t140.5 91.5t86.5 174.5t29.5 275.5v153q0 165 -29.5 273.5t-86.5 173.5t-140.5 91.5t-190.5 26.5t-190.5 -26.5t-141 -91.5t-87.5 -173.5t-30 -273.5v-155z" />
<glyph unicode="R" horiz-adv-x="1330" d="M203 14v1445q0 14 14 15q97 8 186 10t178 2q162 0 278.5 -12t190.5 -55t109 -125.5t35 -223.5v-91q0 -121 -27.5 -198t-90.5 -124q-37 -29 -88 -46.5t-118 -27.5q19 -25 32 -46l332 -525q2 -4 2 -7q0 -5 -8 -5h-116q-14 0 -21 12l-345 558q-37 -2 -77 -3t-84 -1h-64.5 t-63.5 1t-66.5 2t-74.5 4v-559q0 -14 -14 -14h-85q-14 0 -14 14zM316 680q33 -3 70.5 -4.5t74 -2.5t68.5 -1h55q136 0 230.5 9t153.5 42.5t85.5 99t26.5 177.5v59q0 114 -28.5 178.5t-88.5 96t-154 38.5t-225 7h-73t-76 -1t-68.5 -2.5t-50.5 -4.5v-691z" />
<glyph unicode="S" horiz-adv-x="1162" d="M117 1146q0 93 29 159.5t93.5 109t168 62.5t251.5 20q87 0 171.5 -7.5t146.5 -21.5q14 -3 11 -16l-17 -74q-3 -14 -17 -11q-30 5 -66.5 9t-75.5 6.5t-77.5 3.5t-71.5 1q-119 0 -201 -12t-133 -39.5t-73.5 -73.5t-22.5 -115t20 -114t60.5 -78t102.5 -59t146 -57l156 -59 q101 -38 166 -75.5t103 -83.5t52.5 -104t14.5 -135q0 -63 -8 -117t-30.5 -99t-61 -80t-100 -59t-148 -36.5t-204.5 -12.5q-47 0 -95.5 2.5t-95 6.5t-89 10t-76.5 14q-14 3 -10 16l22 76q2 8 6 10t12 1q95 -15 172 -20.5t151 -5.5q99 0 170 9t120 26t78.5 42t45 57.5 t20.5 72.5t5 86q0 63 -12 105.5t-48.5 76.5t-105 67t-180.5 77l-134 53q-91 37 -155.5 71.5t-106 77.5t-60.5 99.5t-19 137.5z" />
<glyph unicode="T" horiz-adv-x="1182" d="M32 1376v85q0 14 14 14h1090q14 0 14 -14v-85q0 -14 -14 -14h-488v-1348q0 -14 -14 -14h-86q-14 0 -14 14v1348h-488q-14 0 -14 14z" />
<glyph unicode="U" horiz-adv-x="1427" d="M187 498v963q0 14 14 14h86q14 0 14 -14v-934q0 -111 20 -193t67.5 -136.5t126 -81.5t194.5 -27q120 0 200 26.5t129 81t69.5 137t20.5 193.5v934q0 14 14 14h84q14 0 14 -14v-963q0 -142 -35.5 -241t-103.5 -161t-166.5 -90t-225.5 -28q-125 0 -222 28t-164 90 t-101.5 161t-34.5 241z" />
<glyph unicode="V" horiz-adv-x="1285" d="M35 1462q-2 4 -2 6q0 7 11 7h93q14 0 19 -13l485 -1354h2l483 1354q5 13 19 13h97q11 0 11 -7q0 -3 -2 -6l-525 -1449q-5 -13 -19 -13h-131q-14 0 -19 13z" />
<glyph unicode="W" horiz-adv-x="1817" d="M74 1461q-1 2 -1 5q0 9 12 9h97q14 0 17 -14l229 -1127l47 -233l6 22t15 56t19.5 74.5t20.5 77.5l308 1130q4 14 18 14h90q14 0 18 -13l309 -1124q10 -40 21.5 -82t20.5 -76.5t15 -56.5l6 -22l48 241l226 1119q3 14 17 14h99q12 0 12 -9q0 -2 -1 -5l-316 -1447 q-3 -14 -17 -14h-130q-14 0 -18 13l-326 1174q-5 19 -10 37.5t-9 34t-6.5 26t-3.5 13.5q0 -2 -2.5 -12.5t-6 -26t-8 -34.5t-9.5 -38l-328 -1174q-4 -13 -18 -13h-128q-14 0 -17 14z" />
<glyph unicode="X" horiz-adv-x="1234" d="M53 12l492 724l-492 727q-3 4 -3 7q0 5 9 5h113q14 0 22 -12l423 -642l424 642q8 12 22 12h113q8 0 8 -5q0 -3 -2 -7l-493 -726l493 -725q2 -4 2 -7q0 -5 -8 -5h-113q-14 0 -22 12l-423 642l-424 -642q-8 -12 -22 -12h-113q-9 0 -9 5q0 3 3 7z" />
<glyph unicode="Y" horiz-adv-x="1154" d="M29 1463q-2 4 -2 6q0 6 10 6h99q15 0 20 -12l422 -811l422 811q5 12 20 12h97q10 0 10 -6q0 -2 -2 -6l-490 -948v-501q0 -14 -14 -14h-86q-14 0 -14 14v501z" />
<glyph unicode="Z" horiz-adv-x="1170" d="M94 14v78q0 14 8 26l837 1248h-815q-14 0 -14 14v81q0 14 14 14h930q14 0 14 -14v-78q0 -14 -8 -26l-833 -1249h829q14 0 14 -14v-80q0 -14 -14 -14h-948q-14 0 -14 14z" />
<glyph unicode="[" horiz-adv-x="588" d="M180 -375v1917q0 14 14 14h386q14 0 14 -14v-81q0 -14 -14 -14h-286v-1727h286q14 0 14 -14v-81q0 -14 -14 -14h-386q-14 0 -14 14z" />
<glyph unicode="\" horiz-adv-x="772" d="M79 1543q-4 13 10 13h87q14 0 18 -13l488 -1530q4 -13 -10 -13h-87q-14 0 -18 13z" />
<glyph unicode="]" horiz-adv-x="588" d="M-6 -294q0 14 14 14h286v1727h-286q-14 0 -14 14v81q0 14 14 14h386q14 0 14 -14v-1917q0 -14 -14 -14h-386q-14 0 -14 14v81z" />
<glyph unicode="^" horiz-adv-x="1212" d="M274 1172l268 291q5 5 10 7.5t13 2.5h82q8 0 13 -2.5t10 -7.5l269 -291q8 -10 -5 -10h-114q-8 0 -13 2.5t-10 7.5l-191 214l-190 -214q-5 -5 -10 -7.5t-13 -2.5h-114q-13 0 -5 10z" />
<glyph unicode="_" horiz-adv-x="918" d="M52 -127q0 14 14 14h786q14 0 14 -14v-80q0 -14 -14 -14h-786q-14 0 -14 14v80z" />
<glyph unicode="`" horiz-adv-x="778" d="M230 1510q-9 11 5 11h119q14 0 22 -11l173 -237q8 -11 -6 -11h-91q-8 0 -13 2.5t-10 8.5z" />
<glyph unicode="a" horiz-adv-x="1093" d="M100 310q0 63 10 112t34.5 85.5t66.5 61.5t105 40t149.5 21.5t201.5 6.5h154v85q0 81 -11 133t-42.5 82t-87.5 41.5t-146 11.5q-88 0 -163.5 -7t-152.5 -20q-14 -1 -14 12v71q0 14 14 17q39 7 83 12.5t86.5 9.5t82 6t71.5 2q131 0 208 -21.5t117.5 -69.5t52 -125 t11.5 -188v-665q0 -15 -14 -16q-44 -7 -92 -12.5t-95 -9.5t-89.5 -6t-74.5 -2q-119 0 -206 14.5t-145 52t-86 102t-28 163.5zM205 311q0 -78 25.5 -125t72.5 -71.5t113.5 -32t148.5 -7.5q68 0 132.5 5t123.5 13v446h-165q-143 0 -231.5 -9t-137 -34t-65.5 -69.5t-17 -115.5z " />
<glyph unicode="b" horiz-adv-x="1152" d="M171 24v1564q0 14 14 17l84 18q2 1 5 1q9 0 9 -12v-544q54 9 121 16.5t133 7.5q139 0 231 -26t147.5 -85.5t78.5 -154.5t23 -233v-117q0 -143 -24 -238.5t-81 -153.5t-150.5 -82t-232.5 -24q-78 0 -164 6t-180 23q-14 3 -14 17zM283 97q58 -8 120.5 -12.5t127.5 -4.5 q115 0 188.5 20t115.5 68t58 128.5t16 202.5v76q0 120 -15.5 199.5t-57.5 127t-116 67.5t-191 20q-27 0 -59.5 -1.5t-65 -4t-64 -6.5t-57.5 -9v-871z" />
<glyph unicode="c" horiz-adv-x="964" d="M133 490v92q0 139 23.5 236t80.5 158t152.5 88.5t238.5 27.5q65 0 124.5 -6t108.5 -14q14 -3 11 -17l-13 -69q-3 -13 -17 -12q-48 8 -104 11t-108 3q-116 0 -190.5 -20.5t-117.5 -69.5t-60 -130.5t-17 -202.5v-61q0 -124 17 -205.5t60 -130t117.5 -68t190.5 -19.5 q57 0 112 3.5t103 11.5q15 3 16 -11l12 -71q1 -14 -12 -17q-49 -8 -112.5 -13.5t-120.5 -5.5q-138 0 -232.5 23t-153 81.5t-84 157t-25.5 250.5z" />
<glyph unicode="d" d="M134 477v116q0 140 23.5 235.5t79.5 154t149 84t233 25.5q63 0 129.5 -7.5t120.5 -18.5v522q0 14 14 17l83 18q2 1 5 1q9 0 9 -12v-1588q0 -15 -14 -16q-182 -30 -339 -30q-141 0 -235.5 25t-152 83t-81.5 153.5t-24 237.5zM243 500q0 -122 15.5 -203t58 -129t117 -68 t193.5 -20q62 0 124.5 4.5t117.5 12.5v868q-26 6 -58 10.5t-65.5 7.5t-65.5 4.5t-59 1.5q-115 0 -188.5 -20t-115.5 -67.5t-58 -127.5t-16 -200v-74z" />
<glyph unicode="e" d="M131 504v78q0 129 24.5 225t79 159t141.5 94.5t212 31.5q123 0 209 -30t141 -89.5t80 -148t25 -205.5q0 -39 -3.5 -68t-5.5 -43q-3 -14 -17 -14l-776 -1q1 -115 19 -194t60 -128t111.5 -70.5t173.5 -21.5q43 0 83.5 0.5t81 3t82.5 7.5t88 13q15 1 16 -12l12 -68 q1 -14 -12 -17q-42 -8 -83.5 -13.5t-84 -8.5t-88.5 -4.5t-98 -1.5q-127 0 -216.5 27.5t-146 90t-82.5 162.5t-26 246zM241 589l699 6q-2 102 -19.5 176.5t-58 123t-107.5 72t-167 23.5q-98 0 -163.5 -23.5t-106 -72.5t-58.5 -124.5t-19 -180.5z" />
<glyph unicode="f" horiz-adv-x="705" d="M49 994v63q0 14 14 14h209v224q0 89 15 152t52.5 102.5t100 58t157.5 18.5q48 0 94.5 -4t82.5 -9q12 -1 12 -11q0 -2 -1 -5l-14 -70q-3 -13 -17 -12q-33 3 -75.5 4.5t-72.5 1.5q-69 0 -112.5 -12t-68 -39t-33.5 -70.5t-9 -105.5v-223h276q13 0 12 -14l-14 -74 q-1 -14 -16 -14h-258v-955q0 -14 -14 -14h-83q-14 0 -14 14v955l-209 10q-14 1 -14 15z" />
<glyph unicode="g" d="M134 477v116q0 142 24 238t80.5 154t150.5 82.5t234 24.5q77 0 164.5 -5.5t178.5 -22.5q14 -3 14 -17v-1044q0 -147 -29.5 -240t-90 -145.5t-152.5 -71.5t-218 -19q-27 0 -61.5 1.5t-71.5 5t-73 8.5t-66 12q-8 2 -10.5 6t-1.5 12l11 68q1 14 16 11q55 -14 120.5 -19 t128.5 -5q105 0 178.5 13.5t120 54t67.5 114.5t21 196q-49 -11 -112.5 -18t-126.5 -7q-144 0 -239.5 26.5t-152.5 85.5t-80.5 153.5t-23.5 231.5zM243 496q0 -119 15.5 -198t58.5 -127t119 -68t197 -20q26 0 57 1.5t62.5 4.5t61.5 7.5t55 10.5v867q-57 8 -119.5 12t-128.5 4 q-117 0 -190.5 -20.5t-115.5 -68.5t-57 -128.5t-15 -200.5v-76z" />
<glyph unicode="h" horiz-adv-x="1185" d="M172 14v1574q0 14 14 17l83 18q2 1 5 1q9 0 9 -12v-615q39 22 85.5 39.5t95.5 30t98 19t94 6.5q109 0 179.5 -22t111.5 -74.5t57 -139.5t16 -217v-625q0 -14 -14 -14h-82q-14 0 -14 14v613q0 105 -11 174t-41.5 109.5t-84.5 56.5t-140 16q-41 0 -86 -5.5t-91 -17 t-90 -28.5t-83 -40v-878q0 -14 -14 -14h-83q-14 0 -14 14z" />
<glyph unicode="i" horiz-adv-x="469" d="M174 1266v258q0 14 14 17l93 18q2 1 5 1q9 0 9 -12v-282q0 -14 -14 -14h-93q-14 0 -14 14zM180 14v1043q0 14 14 14h82q14 0 14 -14v-1043q0 -14 -14 -14h-82q-14 0 -14 14z" />
<glyph unicode="j" horiz-adv-x="469" d="M-160 -442l14 70q3 13 17 12q27 -5 59.5 -8.5t61.5 -3.5q56 0 92.5 9.5t57.5 34t29.5 67t8.5 108.5v1210q0 14 14 14h82q14 0 14 -14v-1210q0 -99 -16 -161t-50.5 -97.5t-90 -48.5t-134.5 -13q-33 0 -74.5 3t-73.5 11q-12 3 -12 13q0 2 1 4zM174 1266v258q0 14 14 17 l93 18q2 1 5 1q9 0 9 -12v-282q0 -14 -14 -14h-93q-14 0 -14 14z" />
<glyph unicode="k" horiz-adv-x="1044" d="M172 14v1574q0 14 14 17l83 18q2 1 5 1q9 0 9 -12v-973l533 423q10 9 25 9h130q14 0 3 -9l-459 -366l495 -685q3 -4 3 -7q0 -4 -9 -4h-121q-14 0 -22 11l-431 616l-147 -117v-496q0 -14 -14 -14h-83q-14 0 -14 14z" />
<glyph unicode="l" horiz-adv-x="486" d="M188 14v1574q0 14 14 17l82 18q2 1 5 1q9 0 9 -12v-1598q0 -14 -14 -14h-82q-14 0 -14 14z" />
<glyph unicode="m" horiz-adv-x="1721" d="M172 14v1062q0 14 14 14h60q14 0 17 -14l17 -83q60 44 142 71.5t167 27.5q91 0 154.5 -21t104.5 -71q85 45 174 68.5t172 23.5q101 0 170 -21t112 -69t61.5 -125t18.5 -188v-675q0 -14 -14 -14h-83q-14 0 -14 14v641q0 103 -13 167.5t-44 100.5t-82.5 48.5t-127.5 12.5 q-69 0 -138.5 -16t-144.5 -54q17 -48 25 -110.5t8 -143.5v-646q0 -14 -14 -14h-81q-14 0 -14 14v636q0 103 -13.5 168t-43.5 102t-78.5 50.5t-117.5 13.5q-66 0 -140.5 -19.5t-142.5 -72.5v-878q0 -14 -14 -14h-83q-14 0 -14 14z" />
<glyph unicode="n" horiz-adv-x="1185" d="M172 14v1062q0 14 14 14h60q14 0 17 -14l17 -85q91 48 189 74.5t196 26.5q102 0 170 -23.5t109 -75.5t58.5 -135t17.5 -201v-643q0 -14 -14 -14h-82q-14 0 -14 14v629q0 96 -13.5 161t-45 104.5t-83 57t-127.5 17.5q-88 0 -181.5 -23t-176.5 -68v-878q0 -14 -14 -14h-83 q-14 0 -14 14z" />
<glyph unicode="o" horiz-adv-x="1176" d="M131 490v87q0 135 25.5 232.5t80.5 160t141.5 92.5t209.5 30t210 -30t141.5 -92.5t79.5 -160t25 -232.5v-87q0 -135 -25 -232t-79.5 -159t-141.5 -91.5t-210 -29.5t-209.5 29.5t-141.5 91.5t-80.5 159t-25.5 232zM241 500q0 -111 16.5 -190.5t56.5 -130.5t106.5 -75.5 t167.5 -24.5q100 0 166.5 24t106.5 75.5t57 131.5t17 192v67q0 110 -16.5 189.5t-56 131t-106.5 76t-168 24.5q-100 0 -166.5 -24t-106.5 -75.5t-57 -131t-17 -190.5v-69z" />
<glyph unicode="p" d="M171 -437v1484q0 15 14 16q94 17 180 23t164 6q139 0 232.5 -24t150.5 -81.5t81 -153.5t24 -240v-113q0 -140 -23 -235.5t-79 -155t-149.5 -85.5t-235.5 -26q-62 0 -128.5 7t-118.5 18v-440q0 -14 -14 -14h-84q-14 0 -14 14zM283 103q26 -6 57 -10t63.5 -7t64.5 -4.5 t61 -1.5q117 0 191 20t116 68t57.5 128.5t15.5 200.5v75q0 121 -16 201.5t-58 128.5t-116 67.5t-190 19.5q-63 0 -126.5 -4t-119.5 -12v-870z" />
<glyph unicode="q" d="M134 478v115q0 144 24 240t81 153.5t151 81.5t234 24q78 0 165 -6.5t177 -22.5q14 -1 14 -16v-1484q0 -14 -14 -14h-82q-14 0 -14 14v440q-54 -11 -119.5 -18t-126.5 -7q-142 0 -236.5 26t-150.5 85t-79.5 154.5t-23.5 234.5zM243 497q0 -120 15.5 -200.5t57.5 -128.5 t116.5 -68t192.5 -20q27 0 59 1.5t64.5 4.5t63.5 7t58 10v870q-57 8 -120 12t-127 4q-116 0 -190 -19.5t-116 -67.5t-58 -128.5t-16 -201.5v-75z" />
<glyph unicode="r" horiz-adv-x="697" d="M172 14v1062q0 14 14 14h60q14 0 17 -14l14 -70q30 21 66 37.5t76 27t81 16t81 5.5q20 0 37 -1t29 -3q14 -3 13 -16l-9 -83q-3 -14 -16 -13q-14 2 -27.5 2.5t-30.5 0.5q-78 0 -149.5 -15t-144.5 -58v-892q0 -14 -14 -14h-83q-14 0 -14 14z" />
<glyph unicode="s" horiz-adv-x="982" d="M115 830q0 75 23.5 125t74.5 80.5t130.5 43.5t190.5 13q79 0 153 -6.5t128 -14.5q14 -1 11 -16l-13 -69q-3 -15 -17 -12q-26 3 -53 6t-57.5 5t-65.5 3t-77 1q-93 0 -154.5 -7t-97.5 -25.5t-51 -49.5t-15 -79q0 -39 7 -65.5t29.5 -48t65 -41.5t114.5 -47l155 -55 q77 -28 131 -53.5t88 -58.5t49.5 -78t15.5 -112q0 -84 -25 -140t-78.5 -89.5t-136.5 -47.5t-199 -14q-27 0 -65 1.5t-80 5t-84 9.5t-78 15q-8 2 -10 6t-1 12l13 69q1 14 16 11q77 -16 144 -21.5t141 -5.5q93 0 156.5 8.5t102.5 29.5t56 57t17 91q0 43 -9.5 72t-35 52.5 t-70 44t-115.5 47.5l-184 67q-60 22 -105 45t-75 54.5t-45 75t-15 106.5z" />
<glyph unicode="t" horiz-adv-x="767" d="M36 997v60q0 14 14 14h211v199q0 14 14 17l83 18q2 1 5 1q9 0 9 -12v-223h335q12 0 12 -9q0 -2 -1 -5l-15 -72q-3 -14 -17 -14h-314v-715q0 -58 7 -92.5t23.5 -53t43 -24t65.5 -5.5q35 0 73.5 4t67.5 10q15 3 16 -11l10 -67q3 -14 -12 -18q-32 -8 -80 -14.5t-97 -6.5 q-58 0 -100.5 9.5t-71 39t-42.5 83.5t-14 143v718l-211 11q-14 1 -14 15z" />
<glyph unicode="u" horiz-adv-x="1182" d="M169 427v630q0 14 14 14h83q14 0 14 -14v-626q0 -106 15 -174t52.5 -107t100.5 -53.5t159 -14.5q36 0 75 2.5t77.5 6.5t73.5 9.5t63 12.5v944q0 14 14 14h83q14 0 14 -14v-1013q0 -14 -14 -17q-36 -9 -79.5 -18t-93 -15.5t-103 -11t-108.5 -4.5q-133 0 -218 23.5 t-134.5 77t-68.5 139t-19 209.5z" />
<glyph unicode="v" horiz-adv-x="1011" d="M46 1058q-2 4 -2 6q0 7 11 7h92q14 0 19 -13l339 -947l340 947q5 13 19 13h92q11 0 11 -7q0 -3 -2 -6l-380 -1045q-5 -13 -19 -13h-121q-14 0 -19 13z" />
<glyph unicode="w" horiz-adv-x="1637" d="M63 1058q-1 3 -1 5q0 8 11 8h91q14 0 18 -14l236 -863q3 -11 7 -26.5t7 -29.5t5.5 -23.5t3.5 -9.5q2 1 9.5 27.5t18.5 61.5l288 864q4 13 18 13h88q14 0 18 -13l285 -866q6 -17 11 -32.5t8.5 -27.5t6 -19.5t3.5 -7.5t3.5 10l6 24t7.5 28.5t7 25.5l237 864q4 14 18 14h90 q11 0 11 -8q0 -2 -1 -5l-294 -1045q-4 -13 -18 -13h-115q-14 0 -19 13l-286 827q-4 13 -8 26.5t-7 24.5t-5 18t-3 7t-3 -7.5t-5 -18.5t-7.5 -24.5l-8.5 -25.5l-287 -827q-5 -13 -19 -13h-115q-14 0 -18 13z" />
<glyph unicode="x" horiz-adv-x="1039" d="M65 11l383 524l-383 525q-3 4 -3 7q0 4 9 4h103q14 0 22 -11l323 -454l322 454q8 11 22 11h105q9 0 9 -4q0 -3 -3 -7l-384 -525l384 -524q3 -4 3 -7q0 -4 -9 -4h-105q-14 0 -22 11l-322 452l-323 -452q-8 -11 -22 -11h-103q-9 0 -9 4q0 3 3 7z" />
<glyph unicode="y" horiz-adv-x="973" d="M30 -442l13 71q3 14 17 11q23 -5 48.5 -8t46.5 -3q42 0 74.5 4.5t58.5 17.5t48 38t43 66.5t43.5 101t49.5 143.5h-3q-13 0 -21 11q-8 10 -19 30t-23 52l-362 965q-4 13 9 13h94q14 0 19 -13l298 -806q8 -24 15.5 -46t13.5 -39t9.5 -27.5t5.5 -10.5l292 929q4 13 18 13h95 q11 0 11 -8q0 -2 -1 -5l-372 -1140q-28 -84 -52.5 -146t-50.5 -105.5t-54 -70.5t-62.5 -42.5t-77 -21t-96.5 -5.5q-26 0 -58 3.5t-58 10.5q-8 2 -10.5 5.5t-1.5 11.5z" />
<glyph unicode="z" horiz-adv-x="1002" d="M102 14v60q0 16 3 24t11 19l650 850h-648q-14 0 -14 14v76q0 14 14 14h765q14 0 14 -14v-73q0 -14 -9 -24l-653 -856h650q14 0 14 -14v-76q0 -14 -14 -14h-769q-14 0 -14 14z" />
<glyph unicode="{" horiz-adv-x="627" d="M92 501v84q0 14 12 21q36 20 58.5 40.5t34.5 49t16.5 68.5t4.5 100v353q0 87 12 138t39 77.5t70.5 34.5t106.5 8h137q14 0 14 -14v-82q0 -14 -14 -14h-135q-37 0 -60 -5t-35.5 -20.5t-16.5 -44.5t-4 -76v-355q0 -66 -5.5 -115t-20 -85.5t-40 -63.5t-65.5 -51v-12 q40 -24 65.5 -51.5t40 -64t20 -85t5.5 -114.5v-356q0 -47 4 -76t16.5 -44.5t35.5 -20.5t60 -5h135q14 0 14 -14v-81q0 -14 -14 -14h-137q-63 0 -106.5 8t-70.5 34.5t-39 77.5t-12 137v353q0 60 -4.5 100t-16.5 68.5t-34.5 49t-58.5 41.5q-12 7 -12 21z" />
<glyph unicode="|" horiz-adv-x="476" d="M181 -375v1836q0 14 14 14h86q14 0 14 -14v-1836q0 -14 -14 -14h-86q-14 0 -14 14z" />
<glyph unicode="}" horiz-adv-x="627" d="M30 -294q0 14 14 14h135q37 0 60 5t35.5 20.5t16.5 44.5t4 76v356q0 66 5.5 114.5t20 85t40 64t65.5 51.5v12q-40 24 -65.5 51t-40 63.5t-20 85.5t-5.5 115v355q0 47 -4 76t-16.5 44.5t-35.5 20.5t-60 5h-135q-14 0 -14 14v82q0 14 14 14h137q63 0 106.5 -8t70.5 -34.5 t39 -77.5t12 -138v-353q0 -60 4.5 -100t16.5 -68.5t34.5 -49t58.5 -40.5q12 -7 12 -21v-84q0 -14 -12 -21q-36 -21 -58.5 -41.5t-34.5 -49t-16.5 -68.5t-4.5 -100v-353q0 -86 -12 -137t-39 -77.5t-70.5 -34.5t-106.5 -8h-137q-14 0 -14 14v81z" />
<glyph unicode="~" horiz-adv-x="1025" d="M151 652v37q0 82 17.5 129.5t44 71.5t58 30.5t60.5 6.5q50 0 88.5 -18t76.5 -51l63 -55q37 -32 69 -52.5t68 -20.5q21 0 38 5.5t28.5 24t18 54t7.5 94.5q0 14 14 14h66q14 0 14 -14v-37q0 -81 -17.5 -128t-43.5 -71.5t-58 -31t-60 -6.5q-51 0 -90 17.5t-77 50.5l-61 54 q-38 33 -69.5 54t-68.5 21q-21 0 -38 -6t-28.5 -24.5t-18 -54t-7.5 -94.5q0 -14 -14 -14h-66q-14 0 -14 14z" />
<glyph unicode="&#xa2;" horiz-adv-x="943" d="M118 506v114q0 129 17 222t58.5 156t110 98t170.5 47v232q0 14 14 14h76q14 0 14 -14v-227q5 0 9 0.5t9 0.5q64 0 122 -5t105 -15q14 -3 11 -16l-16 -73q-3 -13 -17 -12q-47 8 -100.5 11.5t-102.5 3.5h-20v-964h20q54 0 107 3.5t97 12.5q14 3 17 -11l15 -70 q3 -14 -11 -17q-23 -5 -50.5 -8.5t-57.5 -5.5t-60.5 -3.5t-58.5 -1.5h-18v-226q0 -14 -14 -14h-76q-14 0 -14 14v232q-98 9 -166 40t-110 92t-61 156.5t-19 233.5zM227 518q0 -108 11 -185t39 -128t76 -79.5t121 -39.5v948q-73 -11 -120.5 -40.5t-75.5 -81t-39.5 -127.5 t-11.5 -181v-86z" />
<glyph unicode="&#xa3;" horiz-adv-x="1077" d="M116 14v89q0 14 12 21q36 20 58 40.5t34 48.5t16.5 68t4.5 100v354h-111q-14 0 -14 14v81q0 14 14 14h111v193q0 79 7 142.5t27 112.5t54 83.5t88 56.5t130 32.5t180 10.5h171q14 0 14 -14v-82q0 -14 -14 -14h-169q-120 0 -193 -16t-113 -54t-53.5 -100.5t-13.5 -155.5 v-195h484q14 0 11 -14l-15 -81q-3 -14 -17 -14h-463v-354q0 -53 -3.5 -94t-12 -73.5t-22.5 -58t-36 -46.5h680q14 0 14 -14v-81q0 -14 -14 -14h-832q-14 0 -14 14z" />
<glyph unicode="&#xa5;" horiz-adv-x="1238" d="M66 1463q-6 12 8 12h99q15 0 20 -12l422 -811l422 811q5 12 20 12h97q14 0 8 -12l-430 -831h310q14 0 11 -14l-15 -76q-3 -14 -17 -14h-343l-6 -13v-137h371q14 0 11 -14l-15 -77q-3 -14 -17 -14h-350v-259q0 -14 -14 -14h-86q-14 0 -14 14v259h-323q-14 0 -11 14l15 77 q3 14 17 14h302v137l-7 13h-316q-14 0 -11 14l15 76q3 14 17 14h241z" />
<glyph unicode="&#xa8;" horiz-adv-x="778" d="M183 1266v258q0 14 14 17l90 18q14 3 14 -11v-282q0 -14 -14 -14h-90q-14 0 -14 14zM477 1266v258q0 14 14 17l90 18q14 3 14 -11v-282q0 -14 -14 -14h-90q-14 0 -14 14z" />
<glyph unicode="&#xa9;" horiz-adv-x="1527" d="M136 764q0 152 27 275.5t97.5 211.5t192 135.5t310.5 47.5q188 0 310 -47.5t193 -135.5t99 -211.5t28 -275.5t-28 -276t-99 -212t-193 -136t-310 -48q-189 0 -310.5 48t-192 136t-97.5 212t-27 276zM233 764q0 -87 8.5 -163t30 -139.5t59.5 -113.5t97 -84.5t141.5 -53 t193.5 -18.5t193.5 18.5t141 53t96.5 84.5t59.5 113.5t30 139.5t8.5 163t-8.5 163t-30 139t-59.5 113t-96.5 84.5t-141 52.5t-193.5 18t-193.5 -18t-141.5 -52.5t-97 -84.5t-59.5 -113t-30 -139t-8.5 -163zM449 721v84q0 109 18.5 182t60.5 117.5t109.5 63t164.5 18.5 q46 0 89 -3.5t78 -10.5q14 -3 11 -17l-12 -69q-3 -13 -17 -12q-35 5 -72 7t-72 2q-75 0 -123.5 -14.5t-77 -48.5t-39.5 -90t-11 -139v-55q0 -83 11 -139.5t39.5 -90.5t77 -48.5t123.5 -14.5q38 0 75.5 2t69.5 8q15 3 16 -11l13 -72q1 -13 -12 -16q-34 -7 -80 -10.5t-87 -3.5 q-97 0 -164.5 18.5t-109.5 63t-60.5 117.5t-18.5 182z" />
<glyph unicode="&#xab;" horiz-adv-x="1149" d="M73 522q-10 10 0 20l354 371q11 10 24 10h116q14 0 4 -10l-367 -381l367 -382q10 -10 -4 -10h-116q-13 0 -24 10zM515 522q-10 10 0 20l354 371q11 10 24 10h116q14 0 4 -10l-367 -381l367 -382q10 -10 -4 -10h-116q-13 0 -24 10z" />
<glyph unicode="&#xad;" horiz-adv-x="807" d="M161 567v80q0 14 14 14h458q14 0 14 -14v-80q0 -14 -14 -14h-458q-14 0 -14 14z" />
<glyph unicode="&#xae;" horiz-adv-x="1269" d="M137 1001q0 121 22.5 219t78.5 167.5t152.5 107t243.5 37.5t243.5 -37.5t153.5 -107t80 -167.5t23 -219q0 -122 -23 -220.5t-80 -168.5t-153.5 -108t-243.5 -38t-243.5 38t-152.5 108t-78.5 168.5t-22.5 220.5zM226 1001q0 -103 15.5 -185.5t60 -140.5t124.5 -89t208 -31 t208 31t125 89t61 140.5t16 185.5q0 102 -16 184t-61 139.5t-125 88t-208 30.5t-208 -30.5t-124.5 -88t-60 -139.5t-15.5 -184zM424 680v627q0 14 14 15q44 4 85 4.5t82 0.5q70 0 121.5 -7t85.5 -27.5t50 -57.5t16 -96v-43q0 -71 -23 -112.5t-82 -60.5l130 -232q5 -9 -3 -16 l-1 -2q-8 -7 -19 -7h-51q-15 0 -20 12l-120 230q-36 -3 -81 -3q-22 0 -46 0.5t-53 4.5v-230q0 -14 -14 -14h-57q-14 0 -14 14zM509 988q28 -2 56 -2.5t47 -0.5q50 0 84.5 3.5t56 16.5t31 36.5t9.5 64.5v26q0 39 -10 62t-32 34t-57 14t-84 3q-23 0 -53.5 -0.5t-47.5 -2.5 v-254z" />
<glyph unicode="&#xb4;" horiz-adv-x="778" d="M229 1273l173 237q8 11 22 11h119q14 0 5 -11l-199 -237q-5 -6 -10 -8.5t-13 -2.5h-91q-14 0 -6 11z" />
<glyph unicode="&#xb8;" horiz-adv-x="778" d="M262 -377l143 263q7 12 21 12h79q14 0 8 -12l-133 -263q-5 -12 -20 -12h-91q-15 0 -7 12z" />
<glyph unicode="&#xbb;" horiz-adv-x="1149" d="M136 150l367 382l-367 381q-10 10 4 10h116q13 0 24 -10l354 -371q10 -10 0 -20l-354 -372q-11 -10 -24 -10h-116q-14 0 -4 10zM578 150l367 382l-367 381q-10 10 4 10h116q13 0 24 -10l354 -371q10 -10 0 -20l-354 -372q-11 -10 -24 -10h-116q-14 0 -4 10z" />
<glyph unicode="&#x2c6;" horiz-adv-x="778" d="M126 1277l198 233q5 6 10 8.5t13 2.5h83q8 0 13 -2.5t10 -8.5l199 -233q9 -11 -5 -11h-98q-8 0 -13 2.5t-10 8.5l-127 161h-20l-128 -161q-5 -6 -10 -8.5t-13 -2.5h-97q-14 0 -5 11z" />
<glyph unicode="&#x2da;" horiz-adv-x="778" d="M191 1400q0 88 49.5 132.5t149.5 44.5q97 0 148 -44.5t51 -131.5q0 -88 -51 -132.5t-148 -44.5q-199 0 -199 176zM275 1400q0 -57 28.5 -79t88.5 -22t87.5 22.5t27.5 79.5t-27 78.5t-88 21.5q-60 0 -88.5 -22t-28.5 -79z" />
<glyph unicode="&#x2dc;" horiz-adv-x="778" d="M67 1314q0 71 15.5 113.5t38.5 64.5t51 28.5t54 6.5q43 0 76 -15t65 -41l57 -46q34 -27 62 -45.5t60 -18.5q17 0 30.5 4.5t23 20t14.5 44.5t6 79q0 14 14 14h62q14 0 14 -14q1 -8 1 -16.5v-12.5q0 -72 -15.5 -114t-38.5 -64t-51.5 -28.5t-53.5 -6.5q-42 0 -74.5 14.5 t-65.5 40.5l-57 46q-35 29 -62.5 47t-59.5 18q-17 0 -30.5 -4.5t-23.5 -20.5t-15 -45.5t-6 -78.5q0 -14 -14 -14h-61q-14 0 -15 14q0 8 -0.5 17t-0.5 13z" />
<glyph unicode="&#x401;" horiz-adv-x="1184" d="M204 14v1447q0 14 14 14h824q14 0 14 -14v-85q0 -14 -14 -14h-725v-502h630q14 0 14 -14v-84q0 -14 -14 -14h-630v-636h725q14 0 14 -14v-84q0 -14 -14 -14h-824q-14 0 -14 14zM426 1620v194q0 14 14 17l89 18q14 3 14 -11v-218q0 -14 -14 -14h-89q-14 0 -14 14z M719 1620v194q0 14 14 17l89 18q14 3 14 -11v-218q0 -14 -14 -14h-89q-14 0 -14 14z" />
<glyph unicode="&#x402;" horiz-adv-x="1498" d="M33 1376v85q0 14 14 14h1090q14 0 14 -14v-85q0 -14 -14 -14h-488v-367q39 19 83.5 33.5t90.5 24.5t91.5 15.5t87.5 5.5q109 0 179.5 -22.5t111.5 -75t56.5 -140t15.5 -217.5v-305q0 -104 -15.5 -169.5t-48.5 -102.5t-86 -50.5t-128 -13.5q-32 0 -69 4t-68 12 q-8 2 -10 5.5t-1 11.5l13 69q3 14 17 11q26 -5 54.5 -8.5t54.5 -3.5q51 0 85 10t53.5 36.5t27.5 72t8 116.5v295q0 105 -11.5 174t-42 109.5t-84 56.5t-138.5 16q-37 0 -78.5 -4.5t-84 -14.5t-84.5 -24.5t-80 -33.5v-874q0 -14 -14 -14h-86q-14 0 -14 14v1348h-488 q-14 0 -14 14z" />
<glyph unicode="&#x403;" horiz-adv-x="1050" d="M204 14v1447q0 14 14 14h787q14 0 14 -14v-85q0 -14 -14 -14h-688v-1348q0 -14 -14 -14h-85q-14 0 -14 14zM503 1616l197 184q9 10 24 10h144q14 0 3 -9l-238 -186q-10 -9 -25 -9h-101q-14 0 -4 10z" />
<glyph unicode="&#x404;" horiz-adv-x="1170" d="M145 670q0 -198 38.5 -330.5t112 -213t180 -114.5t241.5 -34q48 0 93 2.5t85.5 6.5t75 9.5t59.5 11.5q13 3 11 15l-14 81q-2 13 -15 10q-59 -11 -131 -18t-161 -7q-109 0 -194.5 27t-143.5 92.5t-88.5 175.5t-30.5 276v88h690q14 0 14 14v84q0 14 -14 14h-689 q5 152 37.5 253t90.5 162t140.5 86t187.5 25q34 0 72 -1.5t76 -4.5t73 -7.5t62 -10.5q14 -3 16 11l14 78q3 12 -13 15q-21 5 -54 10.5t-73 10t-85 7.5t-91 3q-135 0 -241.5 -34t-180 -114.5t-112 -213.5t-38.5 -330v-135z" />
<glyph unicode="&#x405;" horiz-adv-x="1162" d="M117 1146q0 93 29 159.5t93.5 109t168 62.5t251.5 20q87 0 171.5 -7.5t146.5 -21.5q14 -3 11 -16l-17 -74q-3 -14 -17 -11q-30 5 -66.5 9t-75.5 6.5t-77.5 3.5t-71.5 1q-119 0 -201 -12t-133 -39.5t-73.5 -73.5t-22.5 -115t20 -114t60.5 -78t102.5 -59t146 -57l156 -59 q101 -38 166 -75.5t103 -83.5t52.5 -104t14.5 -135q0 -63 -8 -117t-30.5 -99t-61 -80t-100 -59t-148 -36.5t-204.5 -12.5q-47 0 -95.5 2.5t-95 6.5t-89 10t-76.5 14q-14 3 -10 16l22 76q2 8 6 10t12 1q95 -15 172 -20.5t151 -5.5q99 0 170 9t120 26t78.5 42t45 57.5 t20.5 72.5t5 86q0 63 -12 105.5t-48.5 76.5t-105 67t-180.5 77l-134 53q-91 37 -155.5 71.5t-106 77.5t-60.5 99.5t-19 137.5z" />
<glyph unicode="&#x406;" horiz-adv-x="521" d="M204 14v1447q0 14 14 14h85q14 0 14 -14v-1447q0 -14 -14 -14h-85q-14 0 -14 14z" />
<glyph unicode="&#x407;" horiz-adv-x="521" d="M57 1620v194q0 14 14 17l89 18q14 3 14 -11v-218q0 -14 -14 -14h-89q-14 0 -14 14zM204 14v1447q0 14 14 14h85q14 0 14 -14v-1447q0 -14 -14 -14h-85q-14 0 -14 14zM350 1620v194q0 14 14 17l89 18q14 3 14 -11v-218q0 -14 -14 -14h-89q-14 0 -14 14z" />
<glyph unicode="&#x408;" horiz-adv-x="520" d="M-48 -237l14 77q3 13 16 10q21 -5 42.5 -6t41.5 -1q31 0 56.5 5t43.5 22t27.5 49t9.5 87v1455q0 14 14 14h85q14 0 14 -14v-1461q0 -80 -15.5 -132t-46 -82t-75.5 -42t-103 -12q-26 0 -56.5 4t-56.5 10q-14 4 -11 17z" />
<glyph unicode="&#x409;" horiz-adv-x="2015" d="M34 91q-3 13 11 17q75 19 121.5 99t72 230.5t34 378.5t8.5 544v101q0 14 14 14h795q14 0 14 -14v-577q19 3 47 5t59.5 3.5t64 2t61.5 0.5q147 0 256.5 -14t182.5 -59.5t109 -130.5t36 -227v-53q0 -142 -36 -227t-108.5 -130.5t-182 -59.5t-255.5 -14q-36 0 -77.5 1t-85 3 t-87.5 4.5t-85 6.5q-14 1 -14 15v1348h-595q0 -243 -6 -434t-20.5 -337t-39 -250t-60.5 -174t-85.5 -109t-114.5 -54q-14 -3 -17 10zM1104 96q59 -5 121 -7t124 -2q120 0 206 9t142 41.5t82.5 97t26.5 175.5v54q0 111 -26.5 175t-82.5 96.5t-142 41t-206 8.5 q-59 0 -122.5 -3t-122.5 -8v-678z" />
<glyph unicode="&#x40a;" horiz-adv-x="2115" d="M204 14v1447q0 14 14 14h85q14 0 14 -14v-601h771v601q0 13 11 14h4h86h3q2 0 2.5 -0.5t1.5 -0.5l4 -3l3 -7v-3v-577q19 3 47 5t59.5 3.5t64 2t61.5 0.5q147 0 257 -14t182.5 -59.5t109 -130.5t36.5 -227v-53q0 -142 -36 -227t-109 -130.5t-182 -59.5t-256 -14 q-36 0 -77.5 1t-85 3t-87.5 4.5t-85 6.5q-14 1 -14 15v738h-771v-734q0 -14 -14 -14h-85q-14 0 -14 14zM1203 96q60 -5 121.5 -7t124.5 -2q120 0 206 9t142 41.5t82.5 97t26.5 175.5v54q0 111 -26.5 175t-82.5 96.5t-142 41t-206 8.5q-60 0 -123.5 -3t-122.5 -8v-678z" />
<glyph unicode="&#x40b;" horiz-adv-x="1504" d="M33 1376v85q0 14 14 14h1090q14 0 14 -14v-85q0 -14 -14 -14h-488v-366q38 18 81.5 32.5t88.5 24.5t89 15.5t85 5.5q111 0 182.5 -22t113 -74t57.5 -139.5t16 -217.5v-607q0 -14 -14 -14h-82q-14 0 -14 14v595q0 105 -11 174t-41.5 109.5t-84.5 56.5t-140 16 q-38 0 -79.5 -5t-83.5 -14.5t-84 -24t-79 -33.5v-874q0 -14 -14 -14h-86q-14 0 -14 14v1348h-488q-14 0 -14 14z" />
<glyph unicode="&#x40c;" horiz-adv-x="1121" d="M204 14v1447q0 14 14 14h85q14 0 14 -14v-604l608 608q10 10 24 10h128q14 0 4 -10l-677 -677l693 -778q8 -10 -5 -10h-130q-8 0 -13 2.5t-10 7.5l-622 699v-695q0 -14 -14 -14h-85q-14 0 -14 14zM501 1616l197 184q9 10 24 10h144q14 0 3 -9l-238 -186q-10 -9 -25 -9 h-101q-14 0 -4 10z" />
<glyph unicode="&#x40e;" horiz-adv-x="1036" d="M53 1462q-4 13 9 13h94q14 0 19 -13l354 -869q14 -38 23 -65t12 -41l311 975q4 13 18 13h97q14 0 10 -13l-376 -1109q-27 -82 -52 -141.5t-49.5 -101t-52 -67.5t-60 -40.5t-72.5 -19.5t-90 -5q-31 0 -64 4.5t-63 13.5q-13 4 -10 17l13 68q3 14 17 11q25 -5 52.5 -8.5 t50.5 -3.5q54 0 91.5 8t68 35.5t57 80t57.5 141.5zM275 1799q-1 14 13 14h68q14 0 17 -14q6 -37 21.5 -62t37.5 -40.5t48 -22t53 -6.5t53 6.5t48 22t37.5 40.5t21.5 62q3 14 17 14h68q14 0 13 -14q-6 -49 -23 -88.5t-48 -67t-77.5 -42.5t-109.5 -15t-109 15t-77 42.5 t-48.5 67t-23.5 88.5z" />
<glyph unicode="&#x40f;" horiz-adv-x="1363" d="M204 14v1447q0 14 14 14h85q14 0 14 -14v-1349h729v1349q0 14 14 14h86q14 0 14 -14v-1447q0 -14 -14 -14h-407v-263q0 -14 -14 -14h-86q-14 0 -14 14v263h-407q-14 0 -14 14z" />
<glyph unicode="&#x410;" horiz-adv-x="1290" d="M36 13l524 1449q5 13 19 13h132q14 0 19 -13l526 -1449q6 -13 -9 -13h-98q-14 0 -19 13l-146 408h-679l-146 -408q-5 -13 -19 -13h-95q-15 0 -9 13zM345 531h599l-300 831z" />
<glyph unicode="&#x411;" horiz-adv-x="1248" d="M203 10v1451q0 14 14 14h786q14 0 14 -14v-85q0 -14 -14 -14h-687v-477q19 3 47.5 4.5t60 3t64.5 2t62 0.5q143 0 252 -14t183 -59.5t111.5 -130.5t37.5 -227v-53q0 -142 -37.5 -227t-111.5 -130.5t-183 -59.5t-252 -14q-36 0 -77.5 1t-85 3t-87 4.5t-83.5 6.5 q-14 1 -14 15zM316 96q60 -5 122.5 -7t124.5 -2q120 0 206 9t141.5 41.5t82 97t26.5 175.5v55q0 110 -26.5 174t-82 96.5t-141.5 41.5t-206 9q-61 0 -124.5 -3t-122.5 -8v-679z" />
<glyph unicode="&#x412;" horiz-adv-x="1298" d="M202 10v1451q0 8 3 11t11 5q33 3 72 6t82 4.5t87 2.5t87 1q141 0 246.5 -13.5t175 -51t104 -104t34.5 -172.5v-11q0 -61 -12.5 -110t-34.5 -86t-52 -62.5t-65 -40.5q52 -15 94.5 -44.5t72.5 -76t46.5 -110t16.5 -147.5v-52q0 -142 -38.5 -227t-114.5 -130t-188.5 -59 t-259.5 -14q-38 0 -82 1t-90 3t-92 4.5t-89 6.5q-14 1 -14 15zM315 96q64 -5 132 -7t135 -2q124 0 213.5 9t147.5 41.5t85.5 96.5t27.5 174v51q0 85 -20.5 141.5t-57 89.5t-88 46.5t-112.5 13.5h-463v-654zM315 858h410q68 2 118 21t82.5 52.5t48.5 80.5t16 105v16 q0 84 -28 134t-83 76t-136 34t-187 8q-73 0 -133.5 -2.5t-107.5 -7.5v-517z" />
<glyph unicode="&#x413;" horiz-adv-x="1050" d="M204 14v1447q0 14 14 14h787q14 0 14 -14v-85q0 -14 -14 -14h-688v-1348q0 -14 -14 -14h-85q-14 0 -14 14z" />
<glyph unicode="&#x414;" horiz-adv-x="1380" d="M31 98q0 14 14 14h39q39 0 70 26.5t55 86t40.5 155t27.5 234t16 323.5t5 423v101q0 14 14 14h834q14 0 14 -14v-1349h67q14 0 14 -14v-360q0 -14 -14 -14h-86q-14 0 -14 14v262h-982v-262q0 -14 -14 -14h-86q-14 0 -14 14v360zM239 112h807v1253h-635q0 -293 -7.5 -508 t-26.5 -365.5t-52.5 -242.5t-85.5 -137z" />
<glyph unicode="&#x415;" horiz-adv-x="1184" d="M204 14v1447q0 14 14 14h824q14 0 14 -14v-85q0 -14 -14 -14h-725v-502h630q14 0 14 -14v-84q0 -14 -14 -14h-630v-636h725q14 0 14 -14v-84q0 -14 -14 -14h-824q-14 0 -14 14z" />
<glyph unicode="&#x416;" horiz-adv-x="1719" d="M24 10l702 778l-686 677q-10 10 4 10h120q15 0 24 -10l615 -608v604q0 14 14 14h83q14 0 14 -14v-604l616 608q9 10 24 10h120q14 0 4 -10l-686 -677l702 -778q8 -10 -5 -10h-121q-8 0 -13 2.5t-10 7.5l-631 699v-695q0 -14 -14 -14h-83q-14 0 -14 14v695l-630 -699 q-5 -5 -10 -7.5t-13 -2.5h-121q-13 0 -5 10z" />
<glyph unicode="&#x417;" horiz-adv-x="1126" d="M137 14l3 82q1 15 15 12q70 -8 149.5 -13t151.5 -5q106 0 183.5 16t127.5 53t74.5 97t24.5 148v39q0 50 -14 104t-48.5 98.5t-93.5 73.5t-149 29h-362q-14 0 -14 14v83q0 14 14 14h360q93 0 152.5 24.5t94 61t47.5 78.5t13 78v23q0 78 -28 128.5t-81 80t-129 41.5 t-172 12q-70 0 -143.5 -4.5t-142.5 -12.5q-14 -1 -15 13l-5 79q-1 13 13 16q61 7 138 13.5t159 6.5q123 0 219.5 -17.5t164 -59t103 -111t35.5 -173.5v-26q0 -50 -14.5 -98t-45 -89.5t-79 -72.5t-116.5 -47q73 -20 122.5 -60t78.5 -91t41.5 -107t12.5 -108v-40 q0 -122 -35 -202.5t-102 -128.5t-163.5 -68t-219.5 -20q-86 0 -167 6t-145 14q-14 3 -13 16z" />
<glyph unicode="&#x418;" horiz-adv-x="1413" d="M204 14v1447q0 14 14 14h85q14 0 14 -14l2 -1267q1 0 21 36t52 89l678 1144q7 12 21 12h104q14 0 14 -14v-1447q0 -14 -14 -14h-85q-14 0 -14 14l-1 1268q-2 0 -20 -31.5t-50 -86.5l-681 -1152q-7 -12 -21 -12h-105q-14 0 -14 14z" />
<glyph unicode="&#x419;" horiz-adv-x="1413" d="M204 14v1447q0 14 14 14h85q14 0 14 -14l2 -1267q1 0 21 36t52 89l678 1144q7 12 21 12h104q14 0 14 -14v-1447q0 -14 -14 -14h-85q-14 0 -14 14l-1 1268q-2 0 -20 -31.5t-50 -86.5l-681 -1152q-7 -12 -21 -12h-105q-14 0 -14 14zM440 1799q-1 14 13 14h68q14 0 17 -14 q6 -37 21.5 -62t37.5 -40.5t48 -22t53 -6.5t53 6.5t48 22t37.5 40.5t21.5 62q3 14 17 14h68q14 0 13 -14q-6 -49 -23 -88.5t-48 -67t-77.5 -42.5t-109.5 -15t-109 15t-77 42.5t-48.5 67t-23.5 88.5z" />
<glyph unicode="&#x41a;" horiz-adv-x="1121" d="M204 14v1447q0 14 14 14h85q14 0 14 -14v-604l608 608q10 10 24 10h128q14 0 4 -10l-677 -677l693 -778q8 -10 -5 -10h-130q-8 0 -13 2.5t-10 7.5l-622 699v-695q0 -14 -14 -14h-85q-14 0 -14 14z" />
<glyph unicode="&#x41b;" horiz-adv-x="1308" d="M35 91q-3 13 11 17q75 19 121.5 98.5t71.5 230t33.5 378.5t8.5 545v101q0 14 14 14h795q14 0 14 -14v-1447q0 -14 -14 -14h-86q-14 0 -14 14v1348h-595q0 -244 -6 -435.5t-21 -337t-39 -250t-60.5 -174.5t-86 -109.5t-114.5 -55.5q-14 -3 -17 10z" />
<glyph unicode="&#x41c;" horiz-adv-x="1631" d="M204 14v1447q0 14 14 14h101q14 0 21 -12l415 -733l61 -110q0 1 5.5 11t14.5 26t19.5 35.5t21.5 39.5l414 731q7 12 21 12h101q14 0 14 -14v-1447q0 -14 -14 -14h-86q-14 0 -14 14l-2 1264q-2 -1 -14.5 -24t-28.5 -51l-396 -706q-7 -12 -21 -12h-71q-14 0 -21 12 l-393 699q-18 34 -31 58t-15 24l-3 -1264q0 -14 -14 -14h-85q-14 0 -14 14z" />
<glyph unicode="&#x41d;" horiz-adv-x="1406" d="M204 14v1447q0 14 14 14h85q14 0 14 -14v-601h772v601q0 14 14 14h86q14 0 14 -14v-1447q0 -14 -14 -14h-86q-14 0 -14 14v734h-772v-734q0 -14 -14 -14h-85q-14 0 -14 14z" />
<glyph unicode="&#x41e;" horiz-adv-x="1422" d="M146 670v135q0 197 37.5 329.5t109.5 213t177.5 115t241.5 34.5t241 -34t176.5 -114.5t108.5 -213.5t37 -330v-135q0 -198 -37 -330.5t-108.5 -213t-176.5 -114.5t-241 -34t-241.5 34t-177.5 114.5t-109.5 213t-37.5 330.5zM263 660q0 -165 29.5 -274t87 -174t141 -91.5 t191.5 -26.5q107 0 190.5 26.5t140.5 91.5t86.5 174.5t29.5 275.5v153q0 165 -29.5 273.5t-86.5 173.5t-140.5 91.5t-190.5 26.5t-190.5 -26.5t-141 -91.5t-87.5 -173.5t-30 -273.5v-155z" />
<glyph unicode="&#x41f;" horiz-adv-x="1406" d="M204 14v1447q0 14 14 14h971q14 0 14 -14v-1447q0 -14 -14 -14h-86q-14 0 -14 14v1348h-772v-1348q0 -14 -14 -14h-85q-14 0 -14 14z" />
<glyph unicode="&#x420;" horiz-adv-x="1265" d="M204 14v1451q0 14 14 15q35 2 78 4t85.5 3.5t80.5 2.5t64 1q171 0 292 -16t198.5 -63.5t113.5 -133.5t36 -226v-74q0 -140 -36 -226.5t-113.5 -133.5t-198.5 -63t-292 -16q-21 0 -54 0.5t-65 1.5t-57.5 2t-32.5 2v-531q0 -14 -14 -14h-85q-14 0 -14 14zM317 652 q16 -2 44.5 -3t59 -2t59.5 -1.5t47 -0.5q148 0 248.5 13.5t162 51t87.5 104.5t26 174v53q0 107 -26 174.5t-87.5 105t-162 51t-248.5 13.5q-18 0 -47 -1t-59.5 -2t-59 -3t-44.5 -3v-724z" />
<glyph unicode="&#x421;" horiz-adv-x="1169" d="M142 670v135q0 197 40.5 330t117.5 213.5t188 114.5t253 34q92 0 176 -8.5t142 -22.5q8 -2 10.5 -6t1.5 -12l-14 -75q-3 -14 -17 -11q-67 13 -145 18.5t-152 5.5q-114 0 -204 -27t-152 -93t-94.5 -176t-32.5 -275v-155q0 -166 32.5 -276t94 -175.5t151.5 -92.5t205 -27 q93 0 169 7t138 18q15 3 16 -11l13 -77q1 -8 -1.5 -11.5t-10.5 -5.5q-59 -14 -145 -22.5t-181 -8.5q-142 0 -253 34t-188 114.5t-117.5 213t-40.5 330.5z" />
<glyph unicode="&#x422;" horiz-adv-x="1184" d="M33 1376v85q0 14 14 14h1090q14 0 14 -14v-85q0 -14 -14 -14h-488v-1348q0 -14 -14 -14h-86q-14 0 -14 14v1348h-488q-14 0 -14 14z" />
<glyph unicode="&#x423;" horiz-adv-x="1036" d="M53 1462q-4 13 9 13h94q14 0 19 -13l354 -869q14 -38 23 -65t12 -41l311 975q4 13 18 13h97q14 0 10 -13l-376 -1109q-27 -82 -52 -141.5t-49.5 -101t-52 -67.5t-60 -40.5t-72.5 -19.5t-90 -5q-31 0 -64 4.5t-63 13.5q-13 4 -10 17l13 68q3 14 17 11q25 -5 52.5 -8.5 t50.5 -3.5q54 0 91.5 8t68 35.5t57 80t57.5 141.5z" />
<glyph unicode="&#x424;" horiz-adv-x="1732" d="M123 660v128q0 165 34 267.5t100 159t162 76.5t221 20q28 0 75.5 -1t93.5 -7v158q0 14 14 14h86q14 0 14 -14v-158q22 3 46 4.5t46.5 2.5t42.5 1h35q124 0 220.5 -20t162.5 -76.5t100 -159t34 -267.5v-128q0 -157 -34 -254t-100 -151t-162.5 -72.5t-220.5 -18.5 q-18 0 -44.5 1t-52 2.5t-46 2.5t-27.5 1v-157q0 -14 -14 -14h-86q-14 0 -14 14v157q-7 0 -27.5 -1t-46 -2.5t-51.5 -2.5t-44 -1q-125 0 -221 18.5t-162 72.5t-100 151t-34 254zM238 671q0 -124 25.5 -202t76 -122t125.5 -60t174 -16q15 0 38 1t48 2.5t47.5 3t36.5 1.5v917 q-14 3 -36.5 4t-47 2t-48 1h-38.5q-99 0 -174 -17t-125.5 -63.5t-76 -129t-25.5 -214.5v-108zM923 279q13 0 36 -1.5t47.5 -3t48.5 -2.5t39 -1q98 0 173 16t125.5 60t76.5 122t26 202v102q0 133 -25.5 216.5t-75.5 131t-125 65t-175 17.5h-39t-48.5 -1t-47.5 -2t-36 -4v-917 z" />
<glyph unicode="&#x425;" horiz-adv-x="1234" d="M53 12l492 724l-492 727q-8 12 6 12h113q14 0 22 -12l423 -642l424 642q8 12 22 12h113q13 0 6 -12l-493 -726l493 -725q7 -12 -6 -12h-113q-14 0 -22 12l-423 642l-424 -642q-8 -12 -22 -12h-113q-14 0 -6 12z" />
<glyph unicode="&#x426;" horiz-adv-x="1382" d="M204 14v1447q0 14 14 14h85q14 0 14 -14v-1349h729v1349q0 14 14 14h86q14 0 14 -14v-1349h70q14 0 14 -14v-361q0 -14 -14 -14h-85q-14 0 -14 14v263h-913q-14 0 -14 14z" />
<glyph unicode="&#x427;" horiz-adv-x="1204" d="M111 1011v450q0 14 14 14h86q14 0 14 -14v-437q0 -80 13 -137t47.5 -94.5t94.5 -55t155 -17.5q40 0 85.5 4.5t91.5 14t90.5 24t83.5 35.5v663q0 14 14 14h86q14 0 14 -14v-1447q0 -14 -14 -14h-86q-14 0 -14 14v667q-36 -17 -82 -30t-96 -22t-100.5 -13.5t-94.5 -4.5 q-114 0 -191 22.5t-124 71t-67 124t-20 182.5z" />
<glyph unicode="&#x428;" horiz-adv-x="1999" d="M204 14v1447q0 14 14 14h85q14 0 14 -14v-1349h625v1349q0 14 14 14h87q14 0 14 -14v-1349h625v1349q0 14 14 14h85q14 0 14 -14v-1447q0 -14 -14 -14h-1563q-14 0 -14 14z" />
<glyph unicode="&#x429;" horiz-adv-x="2020" d="M204 14v1447q0 14 14 14h85q14 0 14 -14v-1349h626v1349q0 14 14 14h86q14 0 14 -14v-1349h626v1349q0 14 14 14h86q14 0 14 -14v-1349h74q14 0 14 -14v-361q0 -14 -14 -14h-86q-14 0 -14 14v263h-1553q-14 0 -14 14z" />
<glyph unicode="&#x42a;" horiz-adv-x="1364" d="M46 1376v85q0 14 14 14h377q14 0 14 -14v-577q19 3 47 5t59.5 3.5t64.5 2t62 0.5q147 0 256.5 -14t182.5 -59.5t109 -130.5t36 -227v-53q0 -142 -36 -227t-108.5 -130.5t-182 -59.5t-255.5 -14q-36 0 -77.5 1t-85 3t-87.5 4.5t-85 6.5q-14 1 -14 15v1352h-277 q-14 0 -14 14zM451 96q60 -5 122 -7t124 -2q120 0 206 9t142 41.5t82.5 97t26.5 175.5v54q0 111 -26.5 175.5t-82.5 97.5t-142 41.5t-206 8.5q-59 0 -122.5 -3t-123.5 -8v-680z" />
<glyph unicode="&#x42b;" horiz-adv-x="1771" d="M203 10v1451q0 14 14 14h86q14 0 14 -14v-577q19 3 47.5 5t60 3.5t64 2t61.5 0.5q147 0 256.5 -14t182 -59.5t109 -130.5t36.5 -227v-53q0 -142 -36 -227t-109 -130.5t-182 -59.5t-256 -14q-36 0 -77.5 1t-85 3t-87.5 4.5t-84 6.5q-14 1 -14 15zM317 96q60 -5 122 -7 t124 -2q120 0 206 9t142 41.5t82.5 97t26.5 175.5v54q0 111 -26.5 175t-82.5 96.5t-142 41t-206 8.5q-59 0 -122.5 -3t-123.5 -8v-678zM1452 14v1447q0 14 14 14h87q14 0 14 -14v-1447q0 -14 -14 -14h-87q-14 0 -14 14z" />
<glyph unicode="&#x42c;" horiz-adv-x="1229" d="M203 10v1451q0 14 14 14h86q14 0 14 -14v-577q19 3 47.5 5t60 3.5t64 2t61.5 0.5q147 0 256.5 -14t182 -59.5t109 -130.5t36.5 -227v-53q0 -142 -36 -227t-109 -130.5t-182 -59.5t-256 -14q-36 0 -77.5 1t-85 3t-87.5 4.5t-84 6.5q-14 1 -14 15zM317 96q60 -5 122 -7 t124 -2q120 0 206 9t142 41.5t82.5 97t26.5 175.5v54q0 111 -26.5 175t-82.5 96.5t-142 41t-206 8.5q-59 0 -122.5 -3t-123.5 -8v-678z" />
<glyph unicode="&#x42d;" horiz-adv-x="1170" d="M129 23l14 81q2 13 15 10q59 -11 131 -18t161 -7q109 0 194.5 27t143.5 92.5t88.5 175.5t30.5 276v88h-690q-14 0 -14 14v84q0 14 14 14h689q-5 152 -37.5 253t-90.5 162t-140.5 86t-187.5 25q-34 0 -72 -1.5t-76 -4.5t-73 -7.5t-62 -10.5q-14 -3 -16 11l-14 78 q-3 12 13 15q21 5 54 10.5t73 10t85 7.5t91 3q135 0 241.5 -34t180 -114.5t112 -213.5t38.5 -330v-135q0 -198 -38.5 -330.5t-112 -213t-180 -114.5t-241.5 -34q-48 0 -93 2.5t-85.5 6.5t-75 9.5t-59.5 11.5q-13 3 -11 15z" />
<glyph unicode="&#x42e;" horiz-adv-x="1972" d="M204 14v1447q0 14 14 14h85q14 0 14 -14v-601h380q5 180 45 302.5t112 196.5t174.5 106t233.5 32q136 0 241 -34t176.5 -114.5t108.5 -213.5t37 -330v-135q0 -198 -37 -330.5t-108.5 -213t-176.5 -114.5t-241 -34t-241.5 34t-177.5 114.5t-109.5 213t-37.5 330.5v78h-379 v-734q0 -14 -14 -14h-85q-14 0 -14 14zM813 660q0 -165 29.5 -274t87 -174t141 -91.5t191.5 -26.5q107 0 190.5 26.5t140.5 91.5t86.5 174.5t29.5 275.5v153q0 165 -29.5 273.5t-86.5 173.5t-140.5 91.5t-190.5 26.5t-190.5 -26.5t-141 -91.5t-87.5 -173.5t-30 -273.5v-155z " />
<glyph unicode="&#x42f;" horiz-adv-x="1330" d="M96 12q-7 -12 6 -12h116q14 0 21 12l345 558q37 -2 77 -3t84 -1h64.5t63.5 1t66.5 2t74.5 4v-559q0 -14 14 -14h85q14 0 14 14v1445q0 14 -14 15q-97 8 -186 10t-178 2q-162 0 -278.5 -12t-190.5 -55t-109 -125.5t-35 -223.5v-91q0 -121 27.5 -198t90.5 -124 q37 -29 88 -46.5t118 -27.5q-19 -25 -32 -46zM250 1000v59q0 114 28.5 178.5t88.5 96t154 38.5t225 7h73t76 -1t68.5 -2.5t50.5 -4.5v-691q-33 -3 -70.5 -4.5t-74 -2.5t-68.5 -1h-55q-136 0 -230.5 9t-153.5 42.5t-85.5 99t-26.5 177.5z" />
<glyph unicode="&#x430;" horiz-adv-x="1093" d="M100 310q0 63 10 112t34.5 85.5t66.5 61.5t105 40t149.5 21.5t201.5 6.5h154v85q0 81 -11 133t-42.5 82t-87.5 41.5t-146 11.5q-88 0 -163.5 -7t-152.5 -20q-14 -1 -14 12v71q0 14 14 17q39 7 83 12.5t86.5 9.5t82 6t71.5 2q131 0 208 -21.5t117.5 -69.5t52 -125 t11.5 -188v-665q0 -15 -14 -16q-44 -7 -92 -12.5t-95 -9.5t-89.5 -6t-74.5 -2q-119 0 -206 14.5t-145 52t-86 102t-28 163.5zM205 311q0 -78 25.5 -125t72.5 -71.5t113.5 -32t148.5 -7.5q68 0 132.5 5t123.5 13v446h-165q-143 0 -231.5 -9t-137 -34t-65.5 -69.5t-17 -115.5z " />
<glyph unicode="&#x431;" horiz-adv-x="1170" d="M154 496v66q0 150 4.5 264.5t20.5 200.5t46.5 146.5t82.5 103.5t128 71.5t184 50.5q87 18 149.5 36.5t104 41t62 49.5t23.5 63q1 14 16 14h70q14 0 14 -14q-3 -52 -24.5 -93.5t-66.5 -75t-116 -60t-171 -47.5q-103 -21 -175.5 -44t-121.5 -62t-77.5 -102t-41.5 -164 q57 69 142 107t197 38q117 0 199.5 -29.5t134.5 -92.5t76 -161t24 -235v-72q0 -136 -24 -234t-77 -161t-136.5 -93t-201.5 -30q-120 0 -204.5 30t-138 93t-78 161t-24.5 234zM265 506q0 -113 16 -194t54 -132.5t102.5 -76t161.5 -24.5q95 0 159 24.5t102.5 76.5t55 133.5 t16.5 194.5v50q0 112 -16 192.5t-54 132.5t-102 77t-161 25q-96 0 -160 -24.5t-102.5 -76.5t-55 -133t-16.5 -193v-52z" />
<glyph unicode="&#x432;" horiz-adv-x="1115" d="M171 14v1043q0 8 3 11t11 5q30 3 66 5t73.5 3.5t75.5 2.5t71 1q124 0 212 -11t144 -39.5t82 -78.5t26 -127v-19q0 -67 -30.5 -118.5t-96.5 -80.5q39 -11 73 -30.5t60 -52t41 -78.5t15 -110v-43q0 -102 -31.5 -163.5t-95 -94t-159 -42.5t-223.5 -10q-32 0 -69.5 0.5t-77 2 t-79.5 4t-77 5.5q-14 1 -14 15zM286 99q52 -4 107 -5t112 -1q99 0 170.5 6t117.5 27.5t68 63.5t22 114v39q0 60 -17.5 97.5t-49.5 58.5t-76 28t-96 7h-358v-435zM286 628h384q48 12 77 31t45.5 42t22 47t5.5 45v20q0 55 -20.5 88t-62.5 50.5t-106 22.5t-151 5q-49 0 -103 -1 t-91 -6v-344z" />
<glyph unicode="&#x433;" horiz-adv-x="771" d="M173 14v1043q0 14 14 14h529q14 0 14 -14v-84q0 -14 -14 -14h-429v-945q0 -14 -14 -14h-86q-14 0 -14 14z" />
<glyph unicode="&#x434;" horiz-adv-x="1128" d="M36 98q0 14 14 14h33q61 0 103.5 43.5t68.5 143t38 261t12 397.5v100q0 14 14 14h600q14 0 14 -14v-945h67q14 0 14 -14v-360q0 -14 -14 -14h-86q-14 0 -14 14v262h-750v-262q0 -14 -14 -14h-86q-14 0 -14 14v360zM274 112h545v850h-401q0 -91 -1.5 -182t-6.5 -176 t-14.5 -162.5t-25.5 -141.5t-39.5 -112.5t-56.5 -75.5z" />
<glyph unicode="&#x435;" d="M131 504v78q0 129 24.5 225t79 159t141.5 94.5t212 31.5q123 0 209 -30t141 -89.5t80 -148t25 -205.5q0 -39 -3.5 -68t-5.5 -43q-3 -14 -17 -14l-776 -1q1 -115 19 -194t60 -128t111.5 -70.5t173.5 -21.5q43 0 83.5 0.5t81 3t82.5 7.5t88 13q15 1 16 -12l12 -68 q1 -14 -12 -17q-42 -8 -83.5 -13.5t-84 -8.5t-88.5 -4.5t-98 -1.5q-127 0 -216.5 27.5t-146 90t-82.5 162.5t-26 246zM241 589l699 6q-2 102 -19.5 176.5t-58 123t-107.5 72t-167 23.5q-98 0 -163.5 -23.5t-106 -72.5t-58.5 -124.5t-19 -180.5z" />
<glyph unicode="&#x436;" horiz-adv-x="1493" d="M43 10l565 555l-554 497q-5 4 -3.5 6.5t7.5 2.5h123q15 0 24 -9l486 -437v432q0 14 14 14h83q14 0 14 -14v-432l485 437q9 9 24 9h125q6 0 7.5 -2.5t-3.5 -6.5l-555 -497l565 -555q10 -10 -4 -10h-124q-14 0 -24 10l-496 495v-491q0 -14 -14 -14h-83q-14 0 -14 14v490 l-496 -494q-10 -10 -24 -10h-124q-14 0 -4 10z" />
<glyph unicode="&#x437;" horiz-adv-x="992" d="M126 17l12 76q2 8 5.5 10t11.5 1q25 -5 57.5 -9t67.5 -7t70 -4.5t65 -1.5q87 0 149 9t101.5 33t58 66t18.5 107v24q0 31 -8 64t-36.5 60t-84 44.5t-149.5 17.5h-278q-14 0 -14 14v72q0 14 14 14h282q66 0 112.5 8.5t77 23.5t47.5 34t25 39.5t10 41.5t2 39v15 q0 58 -19.5 93.5t-60 55t-102.5 26t-147 6.5q-69 0 -134.5 -6t-122.5 -16q-14 -1 -17 12l-13 76q-3 13 11 16q49 8 125 14.5t159 6.5q110 0 192 -11.5t136.5 -42t81.5 -83.5t27 -135v-18q0 -40 -9.5 -81t-33.5 -75.5t-66 -58t-108 -28.5q64 -9 106 -33.5t67 -57.5t34.5 -71 t9.5 -72v-28q0 -98 -27.5 -160t-82.5 -97t-137.5 -48t-191.5 -13q-39 0 -79.5 1.5t-78 4.5t-69.5 7t-55 9q-14 3 -11 16z" />
<glyph unicode="&#x438;" horiz-adv-x="1164" d="M173 14v1043q0 14 14 14h87q14 0 14 -14v-888l5 9.5t13 24t19 33.5t23 39l506 784q8 12 22 12h101q14 0 14 -14v-1043q0 -14 -14 -14h-87q-14 0 -14 14v888l-5.5 -11t-14 -26.5t-19 -34t-20.5 -34.5l-506 -784q-8 -12 -22 -12h-102q-14 0 -14 14z" />
<glyph unicode="&#x439;" horiz-adv-x="1164" d="M173 14v1043q0 14 14 14h87q14 0 14 -14v-888l5 9.5t13 24t19 33.5t23 39l506 784q8 12 22 12h101q14 0 14 -14v-1043q0 -14 -14 -14h-87q-14 0 -14 14v888l-5.5 -11t-14 -26.5t-19 -34t-20.5 -34.5l-506 -784q-8 -12 -22 -12h-102q-14 0 -14 14zM325 1507q-1 14 13 14 h70q13 0 16 -14q6 -44 19.5 -73t34 -46.5t47 -25t58.5 -7.5q31 0 58 7.5t47.5 25t34 46.5t19.5 73q3 14 16 14h70q14 0 13 -14q-5 -54 -21 -98.5t-46 -76t-77 -49t-114 -17.5t-113.5 17.5t-77 49t-46 76t-21.5 98.5z" />
<glyph unicode="&#x43a;" horiz-adv-x="975" d="M173 14v1043q0 14 14 14h83q14 0 14 -14v-432l484 437q9 9 24 9h124q6 0 7.5 -2.5t-3.5 -6.5l-553 -494l566 -558q10 -10 -4 -10h-127q-14 0 -24 10l-494 495v-491q0 -14 -14 -14h-83q-14 0 -14 14z" />
<glyph unicode="&#x43b;" horiz-adv-x="1077" d="M37 89q-1 13 12 16q66 12 110.5 64t71 154t38 258t11.5 376v100q0 14 14 14h596q14 0 14 -14v-1043q0 -14 -14 -14h-83q-14 0 -14 14v941h-400q0 -254 -18 -430t-57 -288t-101 -168t-151 -70q-15 -3 -16 12z" />
<glyph unicode="&#x43c;" horiz-adv-x="1390" d="M173 14v1043q0 14 14 14h102q14 0 22 -12l335 -520l49 -77q0 1 4.5 8t11.5 17.5t15.5 23.5t17.5 27l335 521q8 12 22 12h102q14 0 14 -14v-1043q0 -14 -14 -14h-87q-14 0 -14 14v879q-1 0 -5 -6.5t-9.5 -16.5t-12.5 -21.5t-13 -21.5l-312 -492q-8 -12 -22 -12h-67 q-14 0 -21 12l-312 492q-7 11 -14 22.5t-12.5 21.5t-9.5 16t-5 6v-879q0 -14 -14 -14h-86q-14 0 -14 14z" />
<glyph unicode="&#x43d;" horiz-adv-x="1204" d="M173 14v1043q0 14 14 14h83q14 0 14 -14v-441h636v441q0 14 14 14h82q14 0 14 -14v-1043q0 -14 -14 -14h-82q-14 0 -14 14v486h-636v-486q0 -14 -14 -14h-83q-14 0 -14 14z" />
<glyph unicode="&#x43e;" horiz-adv-x="1176" d="M131 490v87q0 135 25.5 232.5t80.5 160t141.5 92.5t209.5 30t210 -30t141.5 -92.5t79.5 -160t25 -232.5v-87q0 -135 -25 -232t-79.5 -159t-141.5 -91.5t-210 -29.5t-209.5 29.5t-141.5 91.5t-80.5 159t-25.5 232zM241 500q0 -111 16.5 -190.5t56.5 -130.5t106.5 -75.5 t167.5 -24.5q100 0 166.5 24t106.5 75.5t57 131.5t17 192v67q0 110 -16.5 189.5t-56 131t-106.5 76t-168 24.5q-100 0 -166.5 -24t-106.5 -75.5t-57 -131t-17 -190.5v-69z" />
<glyph unicode="&#x43f;" horiz-adv-x="1172" d="M173 14v1043q0 14 14 14h798q14 0 14 -14v-1043q0 -14 -14 -14h-86q-14 0 -14 14v941h-598v-941q0 -14 -14 -14h-86q-14 0 -14 14z" />
<glyph unicode="&#x440;" d="M171 -437v1484q0 15 14 16q94 17 180 23t164 6q139 0 232.5 -24t150.5 -81.5t81 -153.5t24 -240v-113q0 -140 -23 -235.5t-79 -155t-149.5 -85.5t-235.5 -26q-62 0 -128.5 7t-118.5 18v-440q0 -14 -14 -14h-84q-14 0 -14 14zM283 103q26 -6 57 -10t63.5 -7t64.5 -4.5 t61 -1.5q117 0 191 20t116 68t57.5 128.5t15.5 200.5v75q0 121 -16 201.5t-58 128.5t-116 67.5t-190 19.5q-63 0 -126.5 -4t-119.5 -12v-870z" />
<glyph unicode="&#x441;" horiz-adv-x="964" d="M133 490v92q0 139 23.5 236t80.5 158t152.5 88.5t238.5 27.5q65 0 124.5 -6t108.5 -14q14 -3 11 -17l-13 -69q-3 -13 -17 -12q-48 8 -104 11t-108 3q-116 0 -190.5 -20.5t-117.5 -69.5t-60 -130.5t-17 -202.5v-61q0 -124 17 -205.5t60 -130t117.5 -68t190.5 -19.5 q57 0 112 3.5t103 11.5q15 3 16 -11l12 -71q1 -14 -12 -17q-49 -8 -112.5 -13.5t-120.5 -5.5q-138 0 -232.5 23t-153 81.5t-84 157t-25.5 250.5z" />
<glyph unicode="&#x442;" horiz-adv-x="917" d="M45 973v84q0 14 14 14h799q14 0 14 -14v-84q0 -14 -14 -14h-343v-945q0 -14 -14 -14h-86q-14 0 -14 14v945h-342q-14 0 -14 14z" />
<glyph unicode="&#x443;" horiz-adv-x="973" d="M30 -442l13 71q3 14 17 11q23 -5 48.5 -8t46.5 -3q42 0 74.5 4.5t58.5 17.5t48 38t43 66.5t43.5 101t49.5 143.5h-3q-13 0 -21 11q-8 10 -19 30t-23 52l-362 965q-4 13 9 13h94q14 0 19 -13l298 -806q8 -24 15.5 -46t13.5 -39t9.5 -27.5t5.5 -10.5l292 929q4 13 18 13h95 q14 0 10 -13l-372 -1140q-28 -84 -52.5 -146t-50.5 -105.5t-54 -70.5t-62.5 -42.5t-77 -21t-96.5 -5.5q-26 0 -58 3.5t-58 10.5q-8 2 -10.5 5.5t-1.5 11.5z" />
<glyph unicode="&#x444;" horiz-adv-x="1698" d="M135 478v114q0 144 22 240.5t74 154t137.5 81.5t212.5 24q51 0 102 -6t111 -19v520q0 14 14 17l82 18q14 3 14 -11v-544q46 11 103.5 18t109.5 7q127 0 212.5 -24t137.5 -81.5t74 -154t22 -240.5v-114q0 -139 -21 -234t-72 -154t-137 -85t-215 -26q-53 0 -110.5 6.5 t-103.5 17.5v-440q0 -14 -14 -14h-82q-14 0 -14 14v438q-52 -11 -108.5 -16.5t-104.5 -5.5q-129 0 -215 26t-137.5 85t-72.5 154t-21 234zM243 496q0 -120 13.5 -199.5t51 -127.5t103.5 -68t171 -20q47 0 102.5 4t109.5 17v866q-51 12 -107 17t-107 5q-104 0 -169.5 -20 t-102.5 -68t-51 -128.5t-14 -201.5v-76zM904 104q49 -11 105.5 -17t107.5 -6q105 0 170.5 20t102.5 68t50.5 127.5t13.5 199.5v76q0 121 -13.5 201.5t-51 128.5t-103 68t-168.5 20q-52 0 -107.5 -5t-106.5 -17v-864z" />
<glyph unicode="&#x445;" horiz-adv-x="1039" d="M65 11l383 524l-383 525q-8 11 6 11h103q14 0 22 -11l323 -454l322 454q8 11 22 11h105q14 0 6 -11l-384 -525l384 -524q8 -11 -6 -11h-105q-14 0 -22 11l-322 452l-323 -452q-8 -11 -22 -11h-103q-14 0 -6 11z" />
<glyph unicode="&#x446;" horiz-adv-x="1194" d="M173 14v1043q0 14 14 14h86q14 0 14 -14v-941h598v941q0 14 14 14h86q14 0 14 -14v-941h66q14 0 14 -14v-364q0 -14 -14 -14h-85q-14 0 -14 14v262h-779q-14 0 -14 14z" />
<glyph unicode="&#x447;" horiz-adv-x="1102" d="M108 833v224q0 14 14 14h83q14 0 14 -14v-210q0 -112 10.5 -185t40 -115.5t81 -59t133.5 -16.5q39 0 81.5 6t86 17.5t86 29t81.5 40.5v493q0 14 14 14h83q14 0 14 -14v-1043q0 -14 -14 -14h-83q-14 0 -14 14v429q-35 -19 -78 -34.5t-90 -26t-95 -16.5t-93 -6 q-108 0 -176.5 22.5t-108.5 77t-55 145.5t-15 228z" />
<glyph unicode="&#x448;" horiz-adv-x="1756" d="M173 14v1043q0 14 14 14h86q14 0 14 -14v-941h534v941q0 14 14 14h86q14 0 14 -14v-941h533v941q0 14 14 14h87q14 0 14 -14v-1043q0 -14 -14 -14h-1382q-14 0 -14 14z" />
<glyph unicode="&#x449;" horiz-adv-x="1779" d="M173 14v1043q0 14 14 14h86q14 0 14 -14v-941h534v941q0 14 14 14h86q14 0 14 -14v-941h533v941q0 14 14 14h87q14 0 14 -14v-941h66q14 0 14 -14v-364q0 -14 -14 -14h-85q-14 0 -14 14v262h-1363q-14 0 -14 14z" />
<glyph unicode="&#x44a;" horiz-adv-x="1193" d="M47 973v84q0 14 14 14h322q14 0 14 -14v-382q51 6 114.5 10t126.5 4q132 0 219.5 -16.5t140.5 -54t75 -99.5t22 -152v-67q0 -93 -23 -154.5t-77.5 -99t-144 -53t-222.5 -15.5q-75 0 -156.5 4.5t-171.5 15.5q-14 3 -14 16v945h-225q-14 0 -14 14zM397 82q56 -3 114 -6 t118 -3q109 0 178.5 11.5t109.5 39.5t54.5 75.5t14.5 118.5v31q0 69 -14.5 115t-54 73.5t-109 39t-180.5 11.5q-26 0 -56 -1t-60.5 -2.5t-60 -4t-54.5 -5.5v-493z" />
<glyph unicode="&#x44b;" horiz-adv-x="1556" d="M172 14v1043q0 14 14 14h83q14 0 14 -14v-382q51 6 114.5 10t126.5 4q132 0 219.5 -16.5t140.5 -54t75 -99.5t22 -152v-67q0 -93 -23 -154.5t-77.5 -99t-144 -53t-222.5 -15.5q-75 0 -156.5 4.5t-171.5 15.5q-14 3 -14 16zM283 82q56 -3 114 -6t118 -3q109 0 178.5 11.5 t109.5 39.5t54.5 75.5t14.5 118.5v31q0 69 -14.5 115t-54 73.5t-109 39t-180.5 11.5q-26 0 -56 -1t-60.5 -2.5t-60 -4t-54.5 -5.5v-493zM1273 14v1043q0 14 14 14h82q14 0 14 -14v-1043q0 -14 -14 -14h-82q-14 0 -14 14z" />
<glyph unicode="&#x44c;" horiz-adv-x="1078" d="M172 14v1043q0 14 14 14h83q14 0 14 -14v-382q51 6 114.5 10t126.5 4q132 0 219.5 -16.5t140.5 -54t75 -99.5t22 -152v-67q0 -93 -23 -154.5t-77.5 -99t-144 -53t-222.5 -15.5q-75 0 -156.5 4.5t-171.5 15.5q-14 3 -14 16zM283 82q56 -3 114 -6t118 -3q109 0 178.5 11.5 t109.5 39.5t54.5 75.5t14.5 118.5v31q0 69 -14.5 115t-54 73.5t-109 39t-180.5 11.5q-26 0 -56 -1t-60.5 -2.5t-60 -4t-54.5 -5.5v-493z" />
<glyph unicode="&#x44d;" horiz-adv-x="968" d="M111 13l14 71q3 14 17 11q48 -8 104.5 -12t116.5 -4q103 0 172.5 21t111.5 70.5t60 131.5t18 205h-519q-14 0 -14 14v68q0 14 14 14h519q-2 110 -22 184.5t-62.5 119.5t-110.5 64t-167 19q-55 0 -112 -3t-106 -12q-14 -1 -17 12l-17 69q-3 13 11 16q49 10 112 15t131 5 q125 0 214 -24t145.5 -82.5t83 -156t26.5 -244.5v-101q0 -147 -26.5 -244t-83 -155.5t-145.5 -82.5t-214 -24q-30 0 -62.5 1.5t-65 3.5t-62 5.5t-53.5 8.5q-14 3 -11 16z" />
<glyph unicode="&#x44e;" horiz-adv-x="1694" d="M173 14v1043q0 14 14 14h86q14 0 14 -14v-435h363q4 123 32 212t83.5 146t140 84.5t201.5 27.5q123 0 210 -30t141.5 -92.5t79.5 -160t25 -232.5v-87q0 -135 -25 -232t-79.5 -159t-141.5 -91.5t-210 -29.5t-209.5 29.5t-141.5 91.5t-80.5 159t-25.5 232v18h-363v-494 q0 -14 -14 -14h-86q-14 0 -14 14zM760 500q0 -111 16.5 -190.5t56.5 -130.5t106.5 -75.5t167.5 -24.5q100 0 166.5 24t106.5 75.5t57 131.5t17 192v67q0 110 -16.5 189.5t-56 131t-106.5 76t-168 24.5q-100 0 -166.5 -24t-106.5 -75.5t-57 -131t-17 -190.5v-69z" />
<glyph unicode="&#x44f;" horiz-adv-x="1112" d="M83 12l262 414q-57 13 -96 35.5t-63 57t-34.5 83t-10.5 113.5v57q0 102 26.5 163t84.5 93.5t150.5 43t224.5 10.5q73 0 147 -2.5t151 -7.5q14 -1 14 -15v-1043q0 -14 -14 -14h-86q-14 0 -14 14v395q-59 -4 -104 -4.5t-95 -0.5q-97 0 -170 6l-242 -398q-7 -12 -21 -12 h-103q-13 0 -7 12zM256 731q0 -77 17.5 -121.5t59.5 -67t113.5 -29t179.5 -6.5h40.5t52 1l55 2t51.5 3v460q-40 4 -94 5t-106 1q-99 0 -169 -5t-114.5 -26.5t-65 -65.5t-20.5 -121v-30z" />
<glyph unicode="&#x451;" d="M131 504v78q0 129 24.5 225t79 159t141.5 94.5t212 31.5q123 0 209 -30t141 -89.5t80 -148t25 -205.5q0 -39 -3.5 -68t-5.5 -43q-3 -14 -17 -14l-776 -1q1 -115 19 -194t60 -128t111.5 -70.5t173.5 -21.5q43 0 83.5 0.5t81 3t82.5 7.5t88 13q15 1 16 -12l12 -68 q1 -14 -12 -17q-42 -8 -83.5 -13.5t-84 -8.5t-88.5 -4.5t-98 -1.5q-127 0 -216.5 27.5t-146 90t-82.5 162.5t-26 246zM241 589l699 6q-2 102 -19.5 176.5t-58 123t-107.5 72t-167 23.5q-98 0 -163.5 -23.5t-106 -72.5t-58.5 -124.5t-19 -180.5zM377 1266v258q0 14 14 17 l90 18q14 3 14 -11v-282q0 -14 -14 -14h-90q-14 0 -14 14zM671 1266v258q0 14 14 17l90 18q14 3 14 -11v-282q0 -14 -14 -14h-90q-14 0 -14 14z" />
<glyph unicode="&#x452;" horiz-adv-x="1186" d="M32 1294v73q0 14 14 14h127v207q0 14 14 17l83 18q14 3 14 -11v-231h311q14 0 14 -14v-73q0 -14 -14 -14h-311v-279q39 21 86 38t96 29t98 18t93 6q109 0 180 -22t111.5 -74.5t56.5 -139.5t16 -217v-739q0 -115 -15.5 -187.5t-49.5 -114t-88 -56.5t-130 -15 q-33 0 -73 4.5t-72 12.5q-13 4 -10 17l13 69q3 14 17 11q27 -5 58 -8.5t60 -3.5q53 0 88 12t55.5 42.5t28.5 83t8 133.5v729q0 105 -11 173t-41.5 108.5t-84.5 56.5t-140 16q-41 0 -86 -5.5t-90.5 -17t-90 -28.5t-83.5 -40v-878q0 -14 -14 -14h-83q-14 0 -14 14v1266h-127 q-14 0 -14 14z" />
<glyph unicode="&#x453;" horiz-adv-x="771" d="M173 14v1043q0 14 14 14h529q14 0 14 -14v-84q0 -14 -14 -14h-429v-945q0 -14 -14 -14h-86q-14 0 -14 14zM363 1273l173 237q8 11 22 11h119q14 0 5 -11l-199 -237q-5 -6 -10 -8.5t-13 -2.5h-91q-14 0 -6 11z" />
<glyph unicode="&#x454;" horiz-adv-x="967" d="M134 484q0 -147 26.5 -244t83 -155.5t145.5 -82.5t214 -24q30 0 62.5 1.5t65 3.5t62 5.5t53.5 8.5q14 3 11 16l-14 71q-3 14 -17 11q-48 -8 -104.5 -12t-116.5 -4q-103 0 -172.5 21t-111.5 70.5t-60 131.5t-18 205h519q14 0 14 14v68q0 14 -14 14h-519q2 110 22 184.5 t62.5 119.5t110.5 64t167 19q55 0 112 -3t106 -12q14 -1 17 12l17 69q3 13 -11 16q-49 10 -112 15t-131 5q-125 0 -214 -24t-145.5 -82.5t-83 -156t-26.5 -244.5v-101z" />
<glyph unicode="&#x455;" horiz-adv-x="982" d="M115 830q0 75 23.5 125t74.5 80.5t130.5 43.5t190.5 13q79 0 153 -6.5t128 -14.5q14 -1 11 -16l-13 -69q-3 -15 -17 -12q-26 3 -53 6t-57.5 5t-65.5 3t-77 1q-93 0 -154.5 -7t-97.5 -25.5t-51 -49.5t-15 -79q0 -39 7 -65.5t29.5 -48t65 -41.5t114.5 -47l155 -55 q77 -28 131 -53.5t88 -58.5t49.5 -78t15.5 -112q0 -84 -25 -140t-78.5 -89.5t-136.5 -47.5t-199 -14q-27 0 -65 1.5t-80 5t-84 9.5t-78 15q-8 2 -10 6t-1 12l13 69q1 14 16 11q77 -16 144 -21.5t141 -5.5q93 0 156.5 8.5t102.5 29.5t56 57t17 91q0 43 -9.5 72t-35 52.5 t-70 44t-115.5 47.5l-184 67q-60 22 -105 45t-75 54.5t-45 75t-15 106.5z" />
<glyph unicode="&#x456;" horiz-adv-x="456" d="M168 1266v258q0 14 14 17l93 18q14 3 14 -11v-282q0 -14 -14 -14h-93q-14 0 -14 14zM174 14v1043q0 14 14 14h82q14 0 14 -14v-1043q0 -14 -14 -14h-82q-14 0 -14 14z" />
<glyph unicode="&#x457;" horiz-adv-x="456" d="M23 1266v258q0 14 14 17l90 18q14 3 14 -11v-282q0 -14 -14 -14h-90q-14 0 -14 14zM174 14v1043q0 14 14 14h82q14 0 14 -14v-1043q0 -14 -14 -14h-82q-14 0 -14 14zM317 1266v258q0 14 14 17l90 18q14 3 14 -11v-282q0 -14 -14 -14h-90q-14 0 -14 14z" />
<glyph unicode="&#x458;" horiz-adv-x="456" d="M-166 -442l14 70q3 13 17 12q27 -5 59.5 -8.5t61.5 -3.5q56 0 92.5 9.5t57.5 34t29.5 67t8.5 108.5v1210q0 14 14 14h82q14 0 14 -14v-1210q0 -99 -16 -161t-50.5 -97.5t-90 -48.5t-134.5 -13q-33 0 -74.5 3t-73.5 11q-14 4 -11 17zM168 1266v258q0 14 14 17l93 18 q14 3 14 -11v-282q0 -14 -14 -14h-93q-14 0 -14 14z" />
<glyph unicode="&#x459;" horiz-adv-x="1697" d="M37 89q-1 13 12 16q67 12 112 65t71 157.5t37 264.5t11 386v79q0 14 14 14h596q14 0 14 -14v-382q51 6 114.5 10t126.5 4q109 0 188.5 -11.5t132.5 -38t83 -68.5t42 -103q11 -50 11 -112v-56q0 -93 -23 -154.5t-77.5 -99t-144 -53t-222.5 -15.5q-74 0 -156 4.5t-172 15.5 q-14 3 -14 16v941h-400q0 -254 -18 -430t-57 -288t-101 -168t-151 -70q-15 -3 -16 12zM904 82q56 -3 114 -6t118 -3q109 0 178.5 11.5t109.5 39.5t54.5 75.5t14.5 118.5v31q0 70 -14.5 116t-55 73.5t-111.5 38.5t-184 11q-25 0 -54 -1t-58.5 -2.5t-58.5 -4t-53 -5.5v-493z " />
<glyph unicode="&#x45a;" horiz-adv-x="1825" d="M173 14v1043q0 14 14 14h83q14 0 14 -14v-443h636v443q0 14 14 14h82q14 0 14 -14v-382q51 6 115 10t127 4q109 0 188 -11.5t132 -38t83 -68.5t42 -103q11 -50 11 -112v-56q0 -93 -23 -154.5t-77.5 -99t-144 -53t-222.5 -15.5q-74 0 -156 4.5t-171 15.5q-14 3 -14 16v486 h-636v-486q0 -14 -14 -14h-83q-14 0 -14 14zM1030 82q56 -3 114 -6t118 -3q109 0 178.5 11.5t109.5 39.5t54.5 75.5t14.5 118.5v31q0 70 -14.5 116t-55 73.5t-111.5 38.5t-184 11q-50 0 -112 -3t-112 -10v-493z" />
<glyph unicode="&#x45b;" horiz-adv-x="1186" d="M25 1294v73q0 14 14 14h134v207q0 14 14 17l83 18q14 3 14 -11v-231h304q14 0 14 -14v-73q0 -14 -14 -14h-304v-283q39 22 85.5 39.5t95.5 30t98 19t94 6.5q109 0 179.5 -22t111.5 -74.5t57 -139.5t16 -217v-625q0 -14 -14 -14h-82q-14 0 -14 14v613q0 105 -11 174 t-41.5 109.5t-84.5 56.5t-140 16q-41 0 -86 -5.5t-91 -17t-90 -28.5t-83 -40v-878q0 -14 -14 -14h-83q-14 0 -14 14v1266h-134q-14 0 -14 14z" />
<glyph unicode="&#x45c;" horiz-adv-x="975" d="M173 14v1043q0 14 14 14h83q14 0 14 -14v-432l484 437q9 9 24 9h124q6 0 7.5 -2.5t-3.5 -6.5l-553 -494l566 -558q10 -10 -4 -10h-127q-14 0 -24 10l-494 495v-491q0 -14 -14 -14h-83q-14 0 -14 14zM443 1273l173 237q8 11 22 11h119q14 0 5 -11l-199 -237 q-5 -6 -10 -8.5t-13 -2.5h-91q-14 0 -6 11z" />
<glyph unicode="&#x45e;" horiz-adv-x="973" d="M30 -442l13 71q3 14 17 11q23 -5 48.5 -8t46.5 -3q42 0 74.5 4.5t58.5 17.5t48 38t43 66.5t43.5 101t49.5 143.5h-3q-13 0 -21 11q-8 10 -19 30t-23 52l-362 965q-4 13 9 13h94q14 0 19 -13l298 -806q8 -24 15.5 -46t13.5 -39t9.5 -27.5t5.5 -10.5l292 929q4 13 18 13h95 q14 0 10 -13l-372 -1140q-28 -84 -52.5 -146t-50.5 -105.5t-54 -70.5t-62.5 -42.5t-77 -21t-96.5 -5.5q-26 0 -58 3.5t-58 10.5q-8 2 -10.5 5.5t-1.5 11.5zM236 1507q-1 14 13 14h70q13 0 16 -14q6 -44 19.5 -73t34 -46.5t47 -25t58.5 -7.5q31 0 58 7.5t47.5 25t34 46.5 t19.5 73q3 14 16 14h70q14 0 13 -14q-5 -54 -21 -98.5t-46 -76t-77 -49t-114 -17.5t-113.5 17.5t-77 49t-46 76t-21.5 98.5z" />
<glyph unicode="&#x45f;" horiz-adv-x="1165" d="M173 14v1043q0 14 14 14h83q14 0 14 -14v-941h597v941q0 14 14 14h83q14 0 14 -14v-1043q0 -14 -14 -14h-340v-262q0 -14 -14 -14h-82q-14 0 -14 14v262h-341q-14 0 -14 14z" />
<glyph unicode="&#x490;" horiz-adv-x="1047" d="M204 14v1447q0 14 14 14h687v201q0 14 14 14h86q14 0 14 -14v-243v-4v-53q0 -14 -14 -14h-688v-1348q0 -14 -14 -14h-85q-14 0 -14 14z" />
<glyph unicode="&#x491;" horiz-adv-x="771" d="M173 14v1043q0 14 14 14h429v186q0 14 14 14h86q14 0 14 -14v-223v-4v-57q0 -14 -14 -14h-429v-945q0 -14 -14 -14h-86q-14 0 -14 14z" />
<glyph unicode="&#x2000;" horiz-adv-x="924" />
<glyph unicode="&#x2001;" horiz-adv-x="1849" />
<glyph unicode="&#x2002;" horiz-adv-x="924" />
<glyph unicode="&#x2003;" horiz-adv-x="1849" />
<glyph unicode="&#x2004;" horiz-adv-x="616" />
<glyph unicode="&#x2005;" horiz-adv-x="462" />
<glyph unicode="&#x2006;" horiz-adv-x="308" />
<glyph unicode="&#x2007;" horiz-adv-x="308" />
<glyph unicode="&#x2008;" horiz-adv-x="231" />
<glyph unicode="&#x2009;" horiz-adv-x="369" />
<glyph unicode="&#x200a;" horiz-adv-x="102" />
<glyph unicode="&#x2010;" horiz-adv-x="807" d="M161 567v80q0 14 14 14h458q14 0 14 -14v-80q0 -14 -14 -14h-458q-14 0 -14 14z" />
<glyph unicode="&#x2011;" horiz-adv-x="807" d="M161 567v80q0 14 14 14h458q14 0 14 -14v-80q0 -14 -14 -14h-458q-14 0 -14 14z" />
<glyph unicode="&#x2012;" horiz-adv-x="807" d="M161 567v80q0 14 14 14h458q14 0 14 -14v-80q0 -14 -14 -14h-458q-14 0 -14 14z" />
<glyph unicode="&#x2013;" horiz-adv-x="1099" d="M161 567v80q0 14 14 14h750q14 0 14 -14v-80q0 -14 -14 -14h-750q-14 0 -14 14z" />
<glyph unicode="&#x2014;" horiz-adv-x="1877" d="M161 567v80q0 14 14 14h1528q14 0 14 -14v-80q0 -14 -14 -14h-1528q-14 0 -14 14z" />
<glyph unicode="&#x2018;" horiz-adv-x="420" d="M83 1483q-3 13 11 12l113 -18q14 -1 17 -16l78 -431q3 -14 -11 -14h-73q-14 0 -17 14z" />
<glyph unicode="&#x2019;" horiz-adv-x="420" d="M118 1030l78 431q3 15 17 16l113 18q14 1 11 -12l-118 -453q-3 -14 -17 -14h-73q-14 0 -11 14z" />
<glyph unicode="&#x201a;" horiz-adv-x="446" d="M84 -214l78 431q3 15 17 16l113 18q14 1 11 -12l-118 -453q-3 -14 -17 -14h-73q-14 0 -11 14z" />
<glyph unicode="&#x201c;" horiz-adv-x="685" d="M83 1483q-3 13 11 12l113 -18q14 -1 17 -16l78 -431q3 -14 -11 -14h-73q-14 0 -17 14zM347 1483q-3 13 11 12l114 -18q14 -1 17 -16l78 -431q3 -14 -11 -14h-74q-14 0 -17 14z" />
<glyph unicode="&#x201d;" horiz-adv-x="685" d="M118 1030l78 431q3 15 17 16l114 18q14 1 11 -12l-118 -453q-3 -14 -17 -14h-74q-14 0 -11 14zM383 1030l78 431q3 15 17 16l113 18q14 1 11 -12l-118 -453q-3 -14 -17 -14h-73q-14 0 -11 14z" />
<glyph unicode="&#x201e;" horiz-adv-x="710" d="M84 -214l78 431q3 15 17 16l114 18q14 1 11 -12l-118 -453q-3 -14 -17 -14h-74q-14 0 -11 14zM349 -214l78 431q3 15 17 16l113 18q14 1 11 -12l-118 -453q-3 -14 -17 -14h-73q-14 0 -11 14z" />
<glyph unicode="&#x2022;" horiz-adv-x="705" d="M129 568q-10 10 0 20l213 214q10 10 20 0l214 -214q10 -10 0 -20l-214 -213q-10 -10 -20 0z" />
<glyph unicode="&#x2026;" horiz-adv-x="1162" d="M149 14v201q0 14 14 17l92 18q14 3 14 -11v-225q0 -14 -14 -14h-92q-14 0 -14 14zM518 14v201q0 14 14 17l92 18q14 3 14 -11v-225q0 -14 -14 -14h-92q-14 0 -14 14zM886 14v201q0 14 14 17l92 18q14 3 14 -11v-225q0 -14 -14 -14h-92q-14 0 -14 14z" />
<glyph unicode="&#x202f;" horiz-adv-x="369" />
<glyph unicode="&#x2039;" horiz-adv-x="707" d="M73 522q-10 10 0 20l354 371q11 10 24 10h116q14 0 4 -10l-367 -381l367 -382q10 -10 -4 -10h-116q-13 0 -24 10z" />
<glyph unicode="&#x203a;" horiz-adv-x="707" d="M136 150l367 382l-367 381q-10 10 4 10h116q13 0 24 -10l354 -371q10 -10 0 -20l-354 -372q-11 -10 -24 -10h-116q-14 0 -4 10z" />
<glyph unicode="&#x205f;" horiz-adv-x="462" />
<glyph unicode="&#x20ac;" horiz-adv-x="1284" d="M91 537l17 83q3 14 17 14h118v36v135v36h-141q-14 0 -11 14l17 83q3 14 17 14h124q15 154 61.5 258t122 168t178.5 91.5t231 27.5q92 0 176 -8.5t142 -22.5q8 -2 10.5 -6t1.5 -12l-14 -75q-3 -14 -17 -11q-67 13 -145 18.5t-152 5.5q-102 0 -184 -21.5t-143 -71.5 t-99 -133.5t-51 -207.5h582q14 0 11 -14l-18 -83q-3 -14 -17 -14h-564v-26v-155v-26h521q14 0 11 -14l-17 -83q-3 -14 -17 -14h-492q13 -125 51 -208t98.5 -133.5t143 -71.5t184.5 -21q93 0 169 7t138 18q15 3 16 -11l13 -77q1 -8 -1.5 -11.5t-10.5 -5.5q-59 -14 -145 -22.5 t-181 -8.5q-128 0 -231 27t-178.5 91t-122 168t-61.5 259h-147q-14 0 -11 14z" />
<glyph unicode="&#x2122;" horiz-adv-x="1685" d="M80 1410v73q0 14 14 14h592q14 0 14 -14v-73q0 -14 -14 -14h-247v-698q0 -14 -14 -14h-70q-14 0 -14 14v698h-247q-14 0 -14 14zM779 698v785q0 14 14 14h90q8 0 12 -2.5t8 -10.5l204 -418q7 -15 13.5 -29.5t11 -27t7.5 -21t4 -9.5q0 1 3.5 9t9 20.5t12.5 28t15 31.5 l202 416q6 13 20 13h91q14 0 14 -14v-785q0 -14 -14 -14h-68q-14 0 -14 14l-2 625q-2 -1 -10.5 -19t-18.5 -38l-193 -401q-4 -8 -8 -10.5t-12 -2.5h-50q-14 0 -20 13l-192 396q-12 27 -20.5 44t-10.5 17l-2 -624q0 -14 -14 -14h-68q-14 0 -14 14z" />
<glyph unicode="&#x25fc;" horiz-adv-x="1070" d="M0 0v1070h1070v-1070h-1070z" />
</font>
</defs>
</svg>
